<?xml version="1.0" encoding="UTF-8" standalone="no"?>
<!DOCTYPE svg PUBLIC "-//W3C//DTD SVG 1.1//EN"
 "http://www.w3.org/Graphics/SVG/1.1/DTD/svg11.dtd">
<!-- Generated by graphviz version 14.1.3 (20260303.0454)
 -->
<!-- Title: MLPFamilyConditioning Pages: 1 -->
<svg width="1601pt" height="656pt"
 viewBox="0.00 0.00 1601.00 656.00" xmlns="http://www.w3.org/2000/svg" xmlns:xlink="http://www.w3.org/1999/xlink">
<g id="graph0" class="graph" transform="scale(1 1) rotate(0) translate(12.96 643.51)">
<title>MLPFamilyConditioning</title>
<polygon fill="white" stroke="none" points="-12.96,12.96 -12.96,-643.51 1587.96,-643.51 1587.96,12.96 -12.96,12.96"/>
<text xml:space="preserve" text-anchor="middle" x="787.5" y="-606.75" font-family="Arial" font-size="22.00">Code&#45;aligned MLP family conditioning (controlled QC&#45;gated post&#45;training)</text>
<g id="clust1" class="cluster">
<title>cluster_family_head</title>
<path fill="white" stroke="#d7dde5" stroke-width="1.2" d="M12,-79C12,-79 387,-79 387,-79 393,-79 399,-85 399,-91 399,-91 399,-505.71 399,-505.71 399,-511.71 393,-517.71 387,-517.71 387,-517.71 12,-517.71 12,-517.71 6,-517.71 0,-511.71 0,-505.71 0,-505.71 0,-91 0,-91 0,-85 6,-79 12,-79"/>
<text xml:space="preserve" text-anchor="middle" x="199.5" y="-500.21" font-family="Arial" font-size="15.00">A. Direct Family Head</text>
</g>
<g id="clust5" class="cluster">
<title>cluster_residual_fh</title>
<path fill="white" stroke="#d7dde5" stroke-width="1.2" d="M419,-44C419,-44 975,-44 975,-44 981,-44 987,-50 987,-56 987,-56 987,-539.47 987,-539.47 987,-545.47 981,-551.47 975,-551.47 975,-551.47 419,-551.47 419,-551.47 413,-551.47 407,-545.47 407,-539.47 407,-539.47 407,-56 407,-56 407,-50 413,-44 419,-44"/>
<text xml:space="preserve" text-anchor="middle" x="697" y="-533.97" font-family="Arial" font-size="15.00">B. Residual Family Head</text>
</g>
<g id="clust9" class="cluster">
<title>cluster_residual_film</title>
<path fill="white" stroke="#d7dde5" stroke-width="1.2" d="M1007,0C1007,0 1563,0 1563,0 1569,0 1575,-6 1575,-12 1575,-12 1575,-584.15 1575,-584.15 1575,-590.15 1569,-596.15 1563,-596.15 1563,-596.15 1007,-596.15 1007,-596.15 1001,-596.15 995,-590.15 995,-584.15 995,-584.15 995,-12 995,-12 995,-6 1001,0 1007,0"/>
<text xml:space="preserve" text-anchor="middle" x="1285" y="-578.65" font-family="Arial" font-size="15.00">C. Residual&#45;FiLM (last block)</text>
</g>
<!-- fh_input&#45;&gt;fh_trunk -->
<g id="edge1" class="edge">
<title>fh_input:e&#45;&gt;fh_trunk:w</title>
<path fill="none" stroke="#52616b" stroke-width="1.25" d="M99.76,-457.92C99.76,-457.92 99.76,-383.97 99.76,-383.97"/>
<polygon fill="#52616b" stroke="#52616b" stroke-width="1.25" points="102.28,-383.97 99.76,-376.77 97.24,-383.97 102.28,-383.97"/>
</g>
<!-- fh_family&#45;&gt;fh_heads -->
<g id="edge4" class="edge">
<title>fh_family:s&#45;&gt;fh_heads:n</title>
<path fill="none" stroke="#c96f1a" stroke-width="1.25" stroke-dasharray="5,2" d="M311,-431.54C311,-431.54 311,-326.73 311,-326.73"/>
<polygon fill="#c96f1a" stroke="#c96f1a" stroke-width="1.25" points="313.52,-326.73 311,-319.53 308.48,-326.73 313.52,-326.73"/>
</g>
<!-- fh_trunk&#45;&gt;fh_heads -->
<g id="edge2" class="edge">
<title>fh_trunk:e&#45;&gt;fh_heads:w</title>
<path fill="none" stroke="#52616b" stroke-width="1.25" d="M232,-375C232,-375 243.71,-375 243.71,-375 243.71,-375 243.71,-301.89 243.71,-301.89"/>
<polygon fill="#52616b" stroke="#52616b" stroke-width="1.25" points="246.23,-301.89 243.71,-294.69 241.19,-301.89 246.23,-301.89"/>
</g>
<!-- fh_trunk&#45;&gt;fh_var -->
<g id="edge3" class="edge">
<title>fh_trunk:e&#45;&gt;fh_var:w</title>
<path fill="none" stroke="#52616b" stroke-width="1.25" d="M143.94,-374.88C143.94,-374.88 143.94,-301.89 143.94,-301.89"/>
<polygon fill="#52616b" stroke="#52616b" stroke-width="1.25" points="146.46,-301.89 143.94,-294.69 141.42,-301.89 146.46,-301.89"/>
</g>
<!-- fh_heads&#45;&gt;fh_out -->
<g id="edge5" class="edge">
<title>fh_heads:e&#45;&gt;fh_out:w</title>
<path fill="none" stroke="#52616b" stroke-width="1.25" d="M298.96,-292.8C298.96,-292.8 298.96,-213.21 298.96,-213.21"/>
<polygon fill="#52616b" stroke="#52616b" stroke-width="1.25" points="301.48,-213.21 298.96,-206.01 296.44,-213.21 301.48,-213.21"/>
</g>
<!-- fh_var&#45;&gt;fh_out -->
<g id="edge6" class="edge">
<title>fh_var:e&#45;&gt;fh_out:w</title>
<path fill="none" stroke="#52616b" stroke-width="1.25" d="M207.88,-293C207.88,-293 222.23,-293 222.23,-293 222.23,-293 222.23,-213.21 222.23,-213.21"/>
<polygon fill="#52616b" stroke="#52616b" stroke-width="1.25" points="224.75,-213.21 222.23,-206.01 219.71,-213.21 224.75,-213.21"/>
</g>
<!-- fh_out&#45;&gt;fh_init -->
<!-- fh_out&#45;&gt;fh_note -->
<!-- rfh_input&#45;&gt;rfh_trunk -->
<g id="edge9" class="edge">
<title>rfh_input:e&#45;&gt;rfh_trunk:w</title>
<path fill="none" stroke="#52616b" stroke-width="1.25" d="M512.26,-491.68C512.26,-491.68 512.26,-417.73 512.26,-417.73"/>
<polygon fill="#52616b" stroke="#52616b" stroke-width="1.25" points="514.78,-417.73 512.26,-410.53 509.74,-417.73 514.78,-417.73"/>
</g>
<!-- rfh_family&#45;&gt;rfh_delta -->
<g id="edge13" class="edge">
<title>rfh_family:e&#45;&gt;rfh_delta:w</title>
<path fill="none" stroke="#c96f1a" stroke-width="1.25" stroke-dasharray="5,2" d="M749.26,-491.68C749.26,-491.68 749.26,-335.65 749.26,-335.65"/>
<polygon fill="#c96f1a" stroke="#c96f1a" stroke-width="1.25" points="751.78,-335.65 749.26,-328.45 746.74,-335.65 751.78,-335.65"/>
</g>
<!-- rfh_trunk&#45;&gt;rfh_shared -->
<g id="edge10" class="edge">
<title>rfh_trunk:e&#45;&gt;rfh_shared:w</title>
<path fill="none" stroke="#52616b" stroke-width="1.25" d="M548.68,-408.64C548.68,-408.64 548.68,-335.65 548.68,-335.65"/>
<polygon fill="#52616b" stroke="#52616b" stroke-width="1.25" points="551.2,-335.65 548.68,-328.45 546.16,-335.65 551.2,-335.65"/>
</g>
<!-- rfh_trunk&#45;&gt;rfh_delta -->
<g id="edge11" class="edge">
<title>rfh_trunk:e&#45;&gt;rfh_delta:w</title>
<path fill="none" stroke="#52616b" stroke-width="1.25" d="M635.95,-408.64C635.95,-408.64 635.95,-335.65 635.95,-335.65"/>
<polygon fill="#52616b" stroke="#52616b" stroke-width="1.25" points="638.47,-335.65 635.95,-328.45 633.43,-335.65 638.47,-335.65"/>
</g>
<!-- rfh_trunk&#45;&gt;rfh_var -->
<g id="edge12" class="edge">
<title>rfh_trunk:e&#45;&gt;rfh_var:w</title>
<path fill="none" stroke="#52616b" stroke-width="1.25" d="M650,-409C650,-409 899.23,-409 899.23,-409 899.23,-409 899.23,-335.65 899.23,-335.65"/>
<polygon fill="#52616b" stroke="#52616b" stroke-width="1.25" points="901.75,-335.65 899.23,-328.45 896.71,-335.65 901.75,-335.65"/>
</g>
<!-- rfh_shared&#45;&gt;rfh_sum -->
<g id="edge14" class="edge">
<title>rfh_shared:e&#45;&gt;rfh_sum:w</title>
<path fill="none" stroke="#52616b" stroke-width="1.25" d="M503.58,-326.56C503.58,-326.56 503.58,-249 503.58,-249 503.58,-249 779.88,-249 779.88,-249"/>
<polygon fill="#52616b" stroke="#52616b" stroke-width="1.25" points="779.88,-251.52 787.08,-249 779.88,-246.48 779.88,-251.52"/>
</g>
<!-- rfh_delta&#45;&gt;rfh_sum -->
<g id="edge15" class="edge">
<title>rfh_delta:e&#45;&gt;rfh_sum:w</title>
<path fill="none" stroke="#52616b" stroke-width="1.25" d="M790.1,-327C790.1,-327 801.61,-327 801.61,-327 801.61,-327 801.61,-258.13 801.61,-258.13"/>
<polygon fill="#52616b" stroke="#52616b" stroke-width="1.25" points="804.13,-258.13 801.61,-250.93 799.09,-258.13 804.13,-258.13"/>
</g>
<!-- rfh_sum&#45;&gt;rfh_out -->
<g id="edge16" class="edge">
<title>rfh_sum:e&#45;&gt;rfh_out:w</title>
<path fill="none" stroke="#52616b" stroke-width="1.25" d="M816.48,-249.04C816.48,-249.04 816.48,-175 816.48,-175 816.48,-175 817.09,-175 817.09,-175"/>
<polygon fill="#52616b" stroke="#52616b" stroke-width="1.25" points="813.43,-177.52 820.63,-175 813.43,-172.48 813.43,-177.52"/>
</g>
<!-- rfh_var&#45;&gt;rfh_out -->
<g id="edge17" class="edge">
<title>rfh_var:e&#45;&gt;rfh_out:w</title>
<path fill="none" stroke="#52616b" stroke-width="1.25" d="M895,-326.56C895,-326.56 895,-174.01 895,-174.01"/>
<polygon fill="#52616b" stroke="#52616b" stroke-width="1.25" points="897.52,-174.01 895,-166.81 892.48,-174.01 897.52,-174.01"/>
</g>
<!-- rfh_out&#45;&gt;rfh_init -->
<!-- rfh_out&#45;&gt;rfh_note -->
<!-- film_input&#45;&gt;film_trunk -->
<g id="edge20" class="edge">
<title>film_input:e&#45;&gt;film_trunk:w</title>
<path fill="none" stroke="#52616b" stroke-width="1.25" d="M1103.76,-536.36C1103.76,-536.36 1103.76,-462.41 1103.76,-462.41"/>
<polygon fill="#52616b" stroke="#52616b" stroke-width="1.25" points="1106.28,-462.41 1103.76,-455.21 1101.24,-462.41 1106.28,-462.41"/>
</g>
<!-- film_family&#45;&gt;film_adapter -->
<g id="edge22" class="edge">
<title>film_family:e&#45;&gt;film_adapter:w</title>
<path fill="none" stroke="#7c5cc4" stroke-width="1.25" stroke-dasharray="5,2" d="M1293.27,-536.36C1293.27,-536.36 1293.27,-380 1293.27,-380 1293.27,-380 1112.24,-380 1112.24,-380"/>
<polygon fill="#7c5cc4" stroke="#7c5cc4" stroke-width="1.25" points="1112.24,-377.48 1105.04,-380 1112.24,-382.52 1112.24,-377.48"/>
</g>
<!-- film_family&#45;&gt;film_delta -->
<g id="edge26" class="edge">
<title>film_family:e&#45;&gt;film_delta:w</title>
<path fill="none" stroke="#c96f1a" stroke-width="1.25" stroke-dasharray="5,2" d="M1335.68,-536.36C1335.68,-536.36 1335.68,-291.65 1335.68,-291.65"/>
<polygon fill="#c96f1a" stroke="#c96f1a" stroke-width="1.25" points="1338.2,-291.65 1335.68,-284.45 1333.16,-291.65 1338.2,-291.65"/>
</g>
<!-- film_trunk&#45;&gt;film_adapter -->
<g id="edge21" class="edge">
<title>film_trunk:e&#45;&gt;film_adapter:w</title>
<path fill="none" stroke="#52616b" stroke-width="1.25" d="M1174.07,-453.32C1174.07,-453.32 1174.07,-380.33 1174.07,-380.33"/>
<polygon fill="#52616b" stroke="#52616b" stroke-width="1.25" points="1176.59,-380.33 1174.07,-373.13 1171.55,-380.33 1176.59,-380.33"/>
</g>
<!-- film_adapter&#45;&gt;film_shared -->
<g id="edge23" class="edge">
<title>film_adapter:e&#45;&gt;film_shared:w</title>
<path fill="none" stroke="#52616b" stroke-width="1.25" d="M1145.25,-371.24C1145.25,-371.24 1145.25,-291.65 1145.25,-291.65"/>
<polygon fill="#52616b" stroke="#52616b" stroke-width="1.25" points="1147.77,-291.65 1145.25,-284.45 1142.73,-291.65 1147.77,-291.65"/>
</g>
<!-- film_adapter&#45;&gt;film_delta -->
<g id="edge24" class="edge">
<title>film_adapter:e&#45;&gt;film_delta:w</title>
<path fill="none" stroke="#52616b" stroke-width="1.25" d="M1230.38,-371.24C1230.38,-371.24 1230.38,-291.65 1230.38,-291.65"/>
<polygon fill="#52616b" stroke="#52616b" stroke-width="1.25" points="1232.9,-291.65 1230.38,-284.45 1227.86,-291.65 1232.9,-291.65"/>
</g>
<!-- film_adapter&#45;&gt;film_var -->
<g id="edge25" class="edge">
<title>film_adapter:e&#45;&gt;film_var:w</title>
<path fill="none" stroke="#52616b" stroke-width="1.25" d="M1250.86,-363C1250.86,-363 1430.83,-363 1430.83,-363 1430.83,-363 1430.83,-291.65 1430.83,-291.65"/>
<polygon fill="#52616b" stroke="#52616b" stroke-width="1.25" points="1433.35,-291.65 1430.83,-284.45 1428.31,-291.65 1433.35,-291.65"/>
</g>
<!-- film_shared&#45;&gt;film_sum -->
<g id="edge27" class="edge">
<title>film_shared:e&#45;&gt;film_sum:w</title>
<path fill="none" stroke="#52616b" stroke-width="1.25" d="M1180.67,-282.56C1180.67,-282.56 1180.67,-205 1180.67,-205 1180.67,-205 1366.88,-205 1366.88,-205"/>
<polygon fill="#52616b" stroke="#52616b" stroke-width="1.25" points="1366.88,-207.52 1374.08,-205 1366.88,-202.48 1366.88,-207.52"/>
</g>
<!-- film_delta&#45;&gt;film_sum -->
<g id="edge28" class="edge">
<title>film_delta:e&#45;&gt;film_sum:w</title>
<path fill="none" stroke="#52616b" stroke-width="1.25" d="M1378.1,-283C1378.1,-283 1389.61,-283 1389.61,-283 1389.61,-283 1389.61,-214.13 1389.61,-214.13"/>
<polygon fill="#52616b" stroke="#52616b" stroke-width="1.25" points="1392.13,-214.13 1389.61,-206.93 1387.09,-214.13 1392.13,-214.13"/>
</g>
<!-- film_sum&#45;&gt;film_out -->
<g id="edge29" class="edge">
<title>film_sum:e&#45;&gt;film_out:w</title>
<path fill="none" stroke="#52616b" stroke-width="1.25" d="M1402.99,-205.04C1402.99,-205.04 1402.99,-131 1402.99,-131 1402.99,-131 1403.64,-131 1403.64,-131"/>
<polygon fill="#52616b" stroke="#52616b" stroke-width="1.25" points="1400.43,-133.52 1407.63,-131 1400.43,-128.48 1400.43,-133.52"/>
</g>
<!-- film_var&#45;&gt;film_out -->
<g id="edge30" class="edge">
<title>film_var:e&#45;&gt;film_out:w</title>
<path fill="none" stroke="#52616b" stroke-width="1.25" d="M1482,-282.56C1482,-282.56 1482,-130.01 1482,-130.01"/>
<polygon fill="#52616b" stroke="#52616b" stroke-width="1.25" points="1484.52,-130.01 1482,-122.81 1479.48,-130.01 1484.52,-130.01"/>
</g>
<!-- film_out&#45;&gt;film_init -->
<!-- film_out&#45;&gt;film_note -->
<!-- fh_input -->
<g id="node1" class="node">
<title>fh_input</title>
<path fill="#eef2ff" stroke="#4f5f9f" stroke-width="1.3" d="M107.52,-476.16C107.52,-476.16 20.48,-476.16 20.48,-476.16 14.48,-476.16 8.48,-470.16 8.48,-464.16 8.48,-464.16 8.48,-451.68 8.48,-451.68 8.48,-445.68 14.48,-439.68 20.48,-439.68 20.48,-439.68 107.52,-439.68 107.52,-439.68 113.52,-439.68 119.52,-445.68 119.52,-451.68 119.52,-451.68 119.52,-464.16 119.52,-464.16 119.52,-470.16 113.52,-476.16 107.52,-476.16"/>
<text xml:space="preserve" text-anchor="middle" x="64" y="-461.22" font-family="Arial" font-size="11.00">7 engineered inputs</text>
<text xml:space="preserve" text-anchor="middle" x="64" y="-448.02" font-family="Arial" font-size="11.00">(time included)</text>
</g>
<!-- fh_family -->
<g id="node2" class="node">
<title>fh_family</title>
<ellipse fill="#fff7ed" stroke="#c96f1a" stroke-width="1.3" cx="311" cy="-457.92" rx="55.58" ry="25.8"/>
<text xml:space="preserve" text-anchor="middle" x="311" y="-461.22" font-family="Arial" font-size="11.00">family id &#160;f</text>
<text xml:space="preserve" text-anchor="middle" x="311" y="-448.02" font-family="Arial" font-size="11.00">(routing only)</text>
</g>
<!-- fh_trunk -->
<g id="node3" class="node">
<title>fh_trunk</title>
<path fill="#e8f0fe" stroke="#4e79a7" stroke-width="1.3" d="M220,-393.12C220,-393.12 92,-393.12 92,-393.12 86,-393.12 80,-387.12 80,-381.12 80,-381.12 80,-368.64 80,-368.64 80,-362.64 86,-356.64 92,-356.64 92,-356.64 220,-356.64 220,-356.64 226,-356.64 232,-362.64 232,-368.64 232,-368.64 232,-381.12 232,-381.12 232,-387.12 226,-393.12 220,-393.12"/>
<text xml:space="preserve" text-anchor="middle" x="156" y="-378.18" font-family="Arial" font-size="11.00">shared trunk [512, 512, 128]</text>
<text xml:space="preserve" text-anchor="middle" x="156" y="-364.98" font-family="Arial" font-size="11.00">updated in this run</text>
</g>
<!-- fh_heads -->
<g id="node4" class="node">
<title>fh_heads</title>
<path fill="#fff7ed" stroke="#c96f1a" stroke-width="1.3" d="M378.81,-317.64C378.81,-317.64 243.19,-317.64 243.19,-317.64 237.19,-317.64 231.19,-311.64 231.19,-305.64 231.19,-305.64 231.19,-279.96 231.19,-279.96 231.19,-273.96 237.19,-267.96 243.19,-267.96 243.19,-267.96 378.81,-267.96 378.81,-267.96 384.81,-267.96 390.81,-273.96 390.81,-279.96 390.81,-279.96 390.81,-305.64 390.81,-305.64 390.81,-311.64 384.81,-317.64 378.81,-317.64"/>
<text xml:space="preserve" text-anchor="middle" x="311" y="-302.7" font-family="Arial" font-size="11.00">select direct mean head</text>
<text xml:space="preserve" text-anchor="middle" x="311" y="-289.5" font-family="Arial" font-size="11.00">mu_heads[f]: Linear(128 &#45;&gt; 1)</text>
<text xml:space="preserve" text-anchor="middle" x="311" y="-276.3" font-family="Arial" font-size="11.00">updated</text>
</g>
<!-- fh_var -->
<g id="node5" class="node">
<title>fh_var</title>
<path fill="#eaf7ef" stroke="#4c9a45" stroke-width="1.3" d="M195.88,-317.64C195.88,-317.64 54.12,-317.64 54.12,-317.64 48.12,-317.64 42.12,-311.64 42.12,-305.64 42.12,-305.64 42.12,-279.96 42.12,-279.96 42.12,-273.96 48.12,-267.96 54.12,-267.96 54.12,-267.96 195.88,-267.96 195.88,-267.96 201.88,-267.96 207.88,-273.96 207.88,-279.96 207.88,-279.96 207.88,-305.64 207.88,-305.64 207.88,-311.64 201.88,-317.64 195.88,-317.64"/>
<text xml:space="preserve" text-anchor="middle" x="125" y="-302.7" font-family="Arial" font-size="11.00">shared log&#45;variance head</text>
<text xml:space="preserve" text-anchor="middle" x="125" y="-289.5" font-family="Arial" font-size="11.00">log_var_head: Linear(128 &#45;&gt; 1)</text>
<text xml:space="preserve" text-anchor="middle" x="125" y="-276.3" font-family="Arial" font-size="11.00">updated</text>
</g>
<!-- fh_out -->
<g id="node6" class="node">
<title>fh_out</title>
<path fill="#ecfdf3" stroke="#2f855a" stroke-width="1.3" d="M354.73,-228.96C354.73,-228.96 225.27,-228.96 225.27,-228.96 219.27,-228.96 213.27,-222.96 213.27,-216.96 213.27,-216.96 213.27,-191.28 213.27,-191.28 213.27,-185.28 219.27,-179.28 225.27,-179.28 225.27,-179.28 354.73,-179.28 354.73,-179.28 360.73,-179.28 366.73,-185.28 366.73,-191.28 366.73,-191.28 366.73,-216.96 366.73,-216.96 366.73,-222.96 360.73,-228.96 354.73,-228.96"/>
<text xml:space="preserve" text-anchor="middle" x="290" y="-214.02" font-family="Arial" font-size="11.00">2&#45;channel network output</text>
<text xml:space="preserve" text-anchor="middle" x="290" y="-200.82" font-family="Arial" font-size="11.00">(mu_hat_f, log sigma_hat^2)</text>
<text xml:space="preserve" text-anchor="middle" x="290" y="-187.62" font-family="Arial" font-size="11.00">no onset head</text>
</g>
<!-- fh_init -->
<g id="node7" class="node">
<title>fh_init</title>
<path fill="#f5f3ff" stroke="#7c5cc4" stroke-width="1.3" d="M165.51,-140.28C165.51,-140.28 20.49,-140.28 20.49,-140.28 14.49,-140.28 8.49,-134.28 8.49,-128.28 8.49,-128.28 8.49,-99 8.49,-99 8.49,-93 14.49,-87 20.49,-87 20.49,-87 165.51,-87 165.51,-87 171.51,-87 177.51,-93 177.51,-99 177.51,-99 177.51,-128.28 177.51,-128.28 177.51,-134.28 171.51,-140.28 165.51,-140.28"/>
<text xml:space="preserve" text-anchor="middle" x="93" y="-127.14" font-family="Arial" font-size="9.00">P0 &#45;&gt; family&#45;head initialization:</text>
<text xml:space="preserve" text-anchor="middle" x="93" y="-116.34" font-family="Arial" font-size="9.00">copy trunk and log&#45;var head;</text>
<text xml:space="preserve" text-anchor="middle" x="93" y="-105.54" font-family="Arial" font-size="9.00">duplicate pooled mean into both heads</text>
<text xml:space="preserve" text-anchor="middle" x="93" y="-94.74" font-family="Arial" font-size="9.00">(exact function match at step 0)</text>
</g>
<!-- fh_note -->
<g id="node8" class="node">
<title>fh_note</title>
<path fill="#fef2f2" stroke="#b85c5c" stroke-width="1.3" d="M379.01,-134.88C379.01,-134.88 212.99,-134.88 212.99,-134.88 206.99,-134.88 200.99,-128.88 200.99,-122.88 200.99,-122.88 200.99,-104.4 200.99,-104.4 200.99,-98.4 206.99,-92.4 212.99,-92.4 212.99,-92.4 379.01,-92.4 379.01,-92.4 385.01,-92.4 391.01,-98.4 391.01,-104.4 391.01,-104.4 391.01,-122.88 391.01,-122.88 391.01,-128.88 385.01,-134.88 379.01,-134.88"/>
<text xml:space="preserve" text-anchor="middle" x="296" y="-121.74" font-family="Arial" font-size="9.00">Eval fallback is only for a configured</text>
<text xml:space="preserve" text-anchor="middle" x="296" y="-110.94" font-family="Arial" font-size="9.00">but untrained family: route to f = 1.</text>
<text xml:space="preserve" text-anchor="middle" x="296" y="-100.14" font-family="Arial" font-size="9.00">A genuinely new id needs model expansion.</text>
</g>
<!-- rfh_input -->
<g id="node9" class="node">
<title>rfh_input</title>
<path fill="#eef2ff" stroke="#4f5f9f" stroke-width="1.3" d="M514.52,-509.92C514.52,-509.92 427.48,-509.92 427.48,-509.92 421.48,-509.92 415.48,-503.92 415.48,-497.92 415.48,-497.92 415.48,-485.44 415.48,-485.44 415.48,-479.44 421.48,-473.44 427.48,-473.44 427.48,-473.44 514.52,-473.44 514.52,-473.44 520.52,-473.44 526.52,-479.44 526.52,-485.44 526.52,-485.44 526.52,-497.92 526.52,-497.92 526.52,-503.92 520.52,-509.92 514.52,-509.92"/>
<text xml:space="preserve" text-anchor="middle" x="471" y="-494.98" font-family="Arial" font-size="11.00">7 engineered inputs</text>
<text xml:space="preserve" text-anchor="middle" x="471" y="-481.78" font-family="Arial" font-size="11.00">(time included)</text>
</g>
<!-- rfh_family -->
<g id="node10" class="node">
<title>rfh_family</title>
<ellipse fill="#fff7ed" stroke="#c96f1a" stroke-width="1.3" cx="764" cy="-491.68" rx="55.58" ry="25.8"/>
<text xml:space="preserve" text-anchor="middle" x="764" y="-494.98" font-family="Arial" font-size="11.00">family id &#160;f</text>
<text xml:space="preserve" text-anchor="middle" x="764" y="-481.78" font-family="Arial" font-size="11.00">(routing only)</text>
</g>
<!-- rfh_trunk -->
<g id="node11" class="node">
<title>rfh_trunk</title>
<path fill="#f1f5f9" stroke="#64748b" stroke-width="1.3" d="M638,-426.88C638,-426.88 510,-426.88 510,-426.88 504,-426.88 498,-420.88 498,-414.88 498,-414.88 498,-402.4 498,-402.4 498,-396.4 504,-390.4 510,-390.4 510,-390.4 638,-390.4 638,-390.4 644,-390.4 650,-396.4 650,-402.4 650,-402.4 650,-414.88 650,-414.88 650,-420.88 644,-426.88 638,-426.88"/>
<text xml:space="preserve" text-anchor="middle" x="574" y="-411.94" font-family="Arial" font-size="11.00">shared trunk [512, 512, 128]</text>
<text xml:space="preserve" text-anchor="middle" x="574" y="-398.74" font-family="Arial" font-size="11.00">frozen by config</text>
</g>
<!-- rfh_shared -->
<g id="node12" class="node">
<title>rfh_shared</title>
<path fill="#f1f5f9" stroke="#64748b" stroke-width="1.3" d="M587.35,-351.4C587.35,-351.4 426.65,-351.4 426.65,-351.4 420.65,-351.4 414.65,-345.4 414.65,-339.4 414.65,-339.4 414.65,-313.72 414.65,-313.72 414.65,-307.72 420.65,-301.72 426.65,-301.72 426.65,-301.72 587.35,-301.72 587.35,-301.72 593.35,-301.72 599.35,-307.72 599.35,-313.72 599.35,-313.72 599.35,-339.4 599.35,-339.4 599.35,-345.4 593.35,-351.4 587.35,-351.4"/>
<text xml:space="preserve" text-anchor="middle" x="507" y="-336.46" font-family="Arial" font-size="11.00">shared mean head</text>
<text xml:space="preserve" text-anchor="middle" x="507" y="-323.26" font-family="Arial" font-size="11.00">mu_shared_head: Linear(128 &#45;&gt; 1)</text>
<text xml:space="preserve" text-anchor="middle" x="507" y="-310.06" font-family="Arial" font-size="11.00">frozen by config</text>
</g>
<!-- rfh_delta -->
<g id="node13" class="node">
<title>rfh_delta</title>
<path fill="#fff7ed" stroke="#c96f1a" stroke-width="1.3" d="M778.1,-351.4C778.1,-351.4 633.9,-351.4 633.9,-351.4 627.9,-351.4 621.9,-345.4 621.9,-339.4 621.9,-339.4 621.9,-313.72 621.9,-313.72 621.9,-307.72 627.9,-301.72 633.9,-301.72 633.9,-301.72 778.1,-301.72 778.1,-301.72 784.1,-301.72 790.1,-307.72 790.1,-313.72 790.1,-313.72 790.1,-339.4 790.1,-339.4 790.1,-345.4 784.1,-351.4 778.1,-351.4"/>
<text xml:space="preserve" text-anchor="middle" x="706" y="-336.46" font-family="Arial" font-size="11.00">select residual head</text>
<text xml:space="preserve" text-anchor="middle" x="706" y="-323.26" font-family="Arial" font-size="11.00">delta_heads[f]: Linear(128 &#45;&gt; 1)</text>
<text xml:space="preserve" text-anchor="middle" x="706" y="-310.06" font-family="Arial" font-size="11.00">updated</text>
</g>
<!-- rfh_sum -->
<g id="node14" class="node">
<title>rfh_sum</title>
<path fill="#ffffff" stroke="#52616b" stroke-width="1.3" d="M800.6,-258.16C800.6,-258.16 795.2,-253.6 795.2,-253.6 792.5,-251.32 792.5,-246.76 795.2,-244.48 795.2,-244.48 800.6,-239.92 800.6,-239.92 803.3,-237.64 808.7,-237.64 811.4,-239.92 811.4,-239.92 816.8,-244.48 816.8,-244.48 819.5,-246.76 819.5,-251.32 816.8,-253.6 816.8,-253.6 811.4,-258.16 811.4,-258.16 808.7,-260.44 803.3,-260.44 800.6,-258.16"/>
<text xml:space="preserve" text-anchor="middle" x="806" y="-245.74" font-family="Arial" font-size="11.00">+</text>
</g>
<!-- rfh_var -->
<g id="node15" class="node">
<title>rfh_var</title>
<path fill="#eaf7ef" stroke="#4c9a45" stroke-width="1.3" d="M966.88,-351.4C966.88,-351.4 825.12,-351.4 825.12,-351.4 819.12,-351.4 813.12,-345.4 813.12,-339.4 813.12,-339.4 813.12,-313.72 813.12,-313.72 813.12,-307.72 819.12,-301.72 825.12,-301.72 825.12,-301.72 966.88,-301.72 966.88,-301.72 972.88,-301.72 978.88,-307.72 978.88,-313.72 978.88,-313.72 978.88,-339.4 978.88,-339.4 978.88,-345.4 972.88,-351.4 966.88,-351.4"/>
<text xml:space="preserve" text-anchor="middle" x="896" y="-336.46" font-family="Arial" font-size="11.00">shared log&#45;variance head</text>
<text xml:space="preserve" text-anchor="middle" x="896" y="-323.26" font-family="Arial" font-size="11.00">log_var_head: Linear(128 &#45;&gt; 1)</text>
<text xml:space="preserve" text-anchor="middle" x="896" y="-310.06" font-family="Arial" font-size="11.00">updated</text>
</g>
<!-- rfh_out -->
<g id="node16" class="node">
<title>rfh_out</title>
<path fill="#ecfdf3" stroke="#2f855a" stroke-width="1.3" d="M955.47,-196.36C955.47,-196.36 834.53,-196.36 834.53,-196.36 828.53,-196.36 822.53,-190.36 822.53,-184.36 822.53,-184.36 822.53,-145.48 822.53,-145.48 822.53,-139.48 828.53,-133.48 834.53,-133.48 834.53,-133.48 955.47,-133.48 955.47,-133.48 961.47,-133.48 967.47,-139.48 967.47,-145.48 967.47,-145.48 967.47,-184.36 967.47,-184.36 967.47,-190.36 961.47,-196.36 955.47,-196.36"/>
<text xml:space="preserve" text-anchor="middle" x="895" y="-181.42" font-family="Arial" font-size="11.00">2&#45;channel network output</text>
<text xml:space="preserve" text-anchor="middle" x="895" y="-168.22" font-family="Arial" font-size="11.00">(mu_hat_shared + Delta_f,</text>
<text xml:space="preserve" text-anchor="middle" x="895" y="-155.02" font-family="Arial" font-size="11.00"> log sigma_hat^2)</text>
<text xml:space="preserve" text-anchor="middle" x="895" y="-141.82" font-family="Arial" font-size="11.00">no onset head</text>
</g>
<!-- rfh_init -->
<g id="node17" class="node">
<title>rfh_init</title>
<path fill="#f5f3ff" stroke="#7c5cc4" stroke-width="1.3" d="M775.49,-94.48C775.49,-94.48 604.51,-94.48 604.51,-94.48 598.51,-94.48 592.51,-88.48 592.51,-82.48 592.51,-82.48 592.51,-64 592.51,-64 592.51,-58 598.51,-52 604.51,-52 604.51,-52 775.49,-52 775.49,-52 781.49,-52 787.49,-58 787.49,-64 787.49,-64 787.49,-82.48 787.49,-82.48 787.49,-88.48 781.49,-94.48 775.49,-94.48"/>
<text xml:space="preserve" text-anchor="middle" x="690" y="-81.34" font-family="Arial" font-size="9.00">Family&#45;head &#45;&gt; residual initialization:</text>
<text xml:space="preserve" text-anchor="middle" x="690" y="-70.54" font-family="Arial" font-size="9.00">mu_shared &lt;&#45; mu_1; &#160;Delta_f &lt;&#45; mu_f &#45; mu_1</text>
<text xml:space="preserve" text-anchor="middle" x="690" y="-59.74" font-family="Arial" font-size="9.00">(existing family functions preserved)</text>
</g>
<!-- rfh_note -->
<g id="node18" class="node">
<title>rfh_note</title>
<path fill="#fef2f2" stroke="#b85c5c" stroke-width="1.3" d="M967.24,-94.48C967.24,-94.48 822.76,-94.48 822.76,-94.48 816.76,-94.48 810.76,-88.48 810.76,-82.48 810.76,-82.48 810.76,-64 810.76,-64 810.76,-58 816.76,-52 822.76,-52 822.76,-52 967.24,-52 967.24,-52 973.24,-52 979.24,-58 979.24,-64 979.24,-64 979.24,-82.48 979.24,-82.48 979.24,-88.48 973.24,-94.48 967.24,-94.48"/>
<text xml:space="preserve" text-anchor="middle" x="895" y="-81.34" font-family="Arial" font-size="9.00">New family requires a new Delta head.</text>
<text xml:space="preserve" text-anchor="middle" x="895" y="-70.54" font-family="Arial" font-size="9.00">Zero initialization then gives</text>
<text xml:space="preserve" text-anchor="middle" x="895" y="-59.74" font-family="Arial" font-size="9.00">the shared&#45;mean fallback.</text>
</g>
<!-- film_input -->
<g id="node19" class="node">
<title>film_input</title>
<path fill="#eef2ff" stroke="#4f5f9f" stroke-width="1.3" d="M1102.52,-554.6C1102.52,-554.6 1015.48,-554.6 1015.48,-554.6 1009.48,-554.6 1003.48,-548.6 1003.48,-542.6 1003.48,-542.6 1003.48,-530.12 1003.48,-530.12 1003.48,-524.12 1009.48,-518.12 1015.48,-518.12 1015.48,-518.12 1102.52,-518.12 1102.52,-518.12 1108.52,-518.12 1114.52,-524.12 1114.52,-530.12 1114.52,-530.12 1114.52,-542.6 1114.52,-542.6 1114.52,-548.6 1108.52,-554.6 1102.52,-554.6"/>
<text xml:space="preserve" text-anchor="middle" x="1059" y="-539.66" font-family="Arial" font-size="11.00">7 engineered inputs</text>
<text xml:space="preserve" text-anchor="middle" x="1059" y="-526.46" font-family="Arial" font-size="11.00">(time included)</text>
</g>
<!-- film_family -->
<g id="node20" class="node">
<title>film_family</title>
<ellipse fill="#fff7ed" stroke="#c96f1a" stroke-width="1.3" cx="1352" cy="-536.36" rx="108.54" ry="25.8"/>
<text xml:space="preserve" text-anchor="middle" x="1352" y="-539.66" font-family="Arial" font-size="11.00">family id &#160;f</text>
<text xml:space="preserve" text-anchor="middle" x="1352" y="-526.46" font-family="Arial" font-size="11.00">(parameter lookup + routing)</text>
</g>
<!-- film_trunk -->
<g id="node21" class="node">
<title>film_trunk</title>
<path fill="#f1f5f9" stroke="#64748b" stroke-width="1.3" d="M1233,-471.56C1233,-471.56 1105,-471.56 1105,-471.56 1099,-471.56 1093,-465.56 1093,-459.56 1093,-459.56 1093,-447.08 1093,-447.08 1093,-441.08 1099,-435.08 1105,-435.08 1105,-435.08 1233,-435.08 1233,-435.08 1239,-435.08 1245,-441.08 1245,-447.08 1245,-447.08 1245,-459.56 1245,-459.56 1245,-465.56 1239,-471.56 1233,-471.56"/>
<text xml:space="preserve" text-anchor="middle" x="1169" y="-456.62" font-family="Arial" font-size="11.00">shared trunk [512, 512, 128]</text>
<text xml:space="preserve" text-anchor="middle" x="1169" y="-443.42" font-family="Arial" font-size="11.00">frozen by config</text>
</g>
<!-- film_adapter -->
<g id="node22" class="node">
<title>film_adapter</title>
<path fill="#f5edff" stroke="#7c5cc4" stroke-width="1.3" d="M1238.86,-396.08C1238.86,-396.08 1115.14,-396.08 1115.14,-396.08 1109.14,-396.08 1103.14,-390.08 1103.14,-384.08 1103.14,-384.08 1103.14,-358.4 1103.14,-358.4 1103.14,-352.4 1109.14,-346.4 1115.14,-346.4 1115.14,-346.4 1238.86,-346.4 1238.86,-346.4 1244.86,-346.4 1250.86,-352.4 1250.86,-358.4 1250.86,-358.4 1250.86,-384.08 1250.86,-384.08 1250.86,-390.08 1244.86,-396.08 1238.86,-396.08"/>
<text xml:space="preserve" text-anchor="middle" x="1177" y="-381.14" font-family="Arial" font-size="11.00">last&#45;block FiLM (128&#45;D)</text>
<text xml:space="preserve" text-anchor="middle" x="1177" y="-367.94" font-family="Arial" font-size="11.00">h_f = gamma_f * h + beta_f</text>
<text xml:space="preserve" text-anchor="middle" x="1177" y="-354.74" font-family="Arial" font-size="11.00">updated</text>
</g>
<!-- film_shared -->
<g id="node23" class="node">
<title>film_shared</title>
<path fill="#f1f5f9" stroke="#64748b" stroke-width="1.3" d="M1175.35,-307.4C1175.35,-307.4 1014.65,-307.4 1014.65,-307.4 1008.65,-307.4 1002.65,-301.4 1002.65,-295.4 1002.65,-295.4 1002.65,-269.72 1002.65,-269.72 1002.65,-263.72 1008.65,-257.72 1014.65,-257.72 1014.65,-257.72 1175.35,-257.72 1175.35,-257.72 1181.35,-257.72 1187.35,-263.72 1187.35,-269.72 1187.35,-269.72 1187.35,-295.4 1187.35,-295.4 1187.35,-301.4 1181.35,-307.4 1175.35,-307.4"/>
<text xml:space="preserve" text-anchor="middle" x="1095" y="-292.46" font-family="Arial" font-size="11.00">shared mean head</text>
<text xml:space="preserve" text-anchor="middle" x="1095" y="-279.26" font-family="Arial" font-size="11.00">mu_shared_head: Linear(128 &#45;&gt; 1)</text>
<text xml:space="preserve" text-anchor="middle" x="1095" y="-266.06" font-family="Arial" font-size="11.00">frozen by config</text>
</g>
<!-- film_delta -->
<g id="node24" class="node">
<title>film_delta</title>
<path fill="#fff7ed" stroke="#c96f1a" stroke-width="1.3" d="M1366.1,-307.4C1366.1,-307.4 1221.9,-307.4 1221.9,-307.4 1215.9,-307.4 1209.9,-301.4 1209.9,-295.4 1209.9,-295.4 1209.9,-269.72 1209.9,-269.72 1209.9,-263.72 1215.9,-257.72 1221.9,-257.72 1221.9,-257.72 1366.1,-257.72 1366.1,-257.72 1372.1,-257.72 1378.1,-263.72 1378.1,-269.72 1378.1,-269.72 1378.1,-295.4 1378.1,-295.4 1378.1,-301.4 1372.1,-307.4 1366.1,-307.4"/>
<text xml:space="preserve" text-anchor="middle" x="1294" y="-292.46" font-family="Arial" font-size="11.00">select residual head</text>
<text xml:space="preserve" text-anchor="middle" x="1294" y="-279.26" font-family="Arial" font-size="11.00">delta_heads[f]: Linear(128 &#45;&gt; 1)</text>
<text xml:space="preserve" text-anchor="middle" x="1294" y="-266.06" font-family="Arial" font-size="11.00">updated</text>
</g>
<!-- film_sum -->
<g id="node25" class="node">
<title>film_sum</title>
<path fill="#ffffff" stroke="#52616b" stroke-width="1.3" d="M1387.6,-214.16C1387.6,-214.16 1382.2,-209.6 1382.2,-209.6 1379.5,-207.32 1379.5,-202.76 1382.2,-200.48 1382.2,-200.48 1387.6,-195.92 1387.6,-195.92 1390.3,-193.64 1395.7,-193.64 1398.4,-195.92 1398.4,-195.92 1403.8,-200.48 1403.8,-200.48 1406.5,-202.76 1406.5,-207.32 1403.8,-209.6 1403.8,-209.6 1398.4,-214.16 1398.4,-214.16 1395.7,-216.44 1390.3,-216.44 1387.6,-214.16"/>
<text xml:space="preserve" text-anchor="middle" x="1393" y="-201.74" font-family="Arial" font-size="11.00">+</text>
</g>
<!-- film_var -->
<g id="node26" class="node">
<title>film_var</title>
<path fill="#eaf7ef" stroke="#4c9a45" stroke-width="1.3" d="M1554.88,-307.4C1554.88,-307.4 1413.12,-307.4 1413.12,-307.4 1407.12,-307.4 1401.12,-301.4 1401.12,-295.4 1401.12,-295.4 1401.12,-269.72 1401.12,-269.72 1401.12,-263.72 1407.12,-257.72 1413.12,-257.72 1413.12,-257.72 1554.88,-257.72 1554.88,-257.72 1560.88,-257.72 1566.88,-263.72 1566.88,-269.72 1566.88,-269.72 1566.88,-295.4 1566.88,-295.4 1566.88,-301.4 1560.88,-307.4 1554.88,-307.4"/>
<text xml:space="preserve" text-anchor="middle" x="1484" y="-292.46" font-family="Arial" font-size="11.00">shared log&#45;variance head</text>
<text xml:space="preserve" text-anchor="middle" x="1484" y="-279.26" font-family="Arial" font-size="11.00">log_var_head: Linear(128 &#45;&gt; 1)</text>
<text xml:space="preserve" text-anchor="middle" x="1484" y="-266.06" font-family="Arial" font-size="11.00">updated</text>
</g>
<!-- film_out -->
<g id="node27" class="node">
<title>film_out</title>
<path fill="#ecfdf3" stroke="#2f855a" stroke-width="1.3" d="M1542.47,-152.36C1542.47,-152.36 1421.53,-152.36 1421.53,-152.36 1415.53,-152.36 1409.53,-146.36 1409.53,-140.36 1409.53,-140.36 1409.53,-101.48 1409.53,-101.48 1409.53,-95.48 1415.53,-89.48 1421.53,-89.48 1421.53,-89.48 1542.47,-89.48 1542.47,-89.48 1548.47,-89.48 1554.47,-95.48 1554.47,-101.48 1554.47,-101.48 1554.47,-140.36 1554.47,-140.36 1554.47,-146.36 1548.47,-152.36 1542.47,-152.36"/>
<text xml:space="preserve" text-anchor="middle" x="1482" y="-137.42" font-family="Arial" font-size="11.00">2&#45;channel network output</text>
<text xml:space="preserve" text-anchor="middle" x="1482" y="-124.22" font-family="Arial" font-size="11.00">(mu_hat_shared + Delta_f,</text>
<text xml:space="preserve" text-anchor="middle" x="1482" y="-111.02" font-family="Arial" font-size="11.00"> log sigma_hat^2)</text>
<text xml:space="preserve" text-anchor="middle" x="1482" y="-97.82" font-family="Arial" font-size="11.00">no onset head</text>
</g>
<!-- film_init -->
<g id="node28" class="node">
<title>film_init</title>
<path fill="#f5f3ff" stroke="#7c5cc4" stroke-width="1.3" d="M1362.01,-50.48C1362.01,-50.48 1185.99,-50.48 1185.99,-50.48 1179.99,-50.48 1173.99,-44.48 1173.99,-38.48 1173.99,-38.48 1173.99,-20 1173.99,-20 1173.99,-14 1179.99,-8 1185.99,-8 1185.99,-8 1362.01,-8 1362.01,-8 1368.01,-8 1374.01,-14 1374.01,-20 1374.01,-20 1374.01,-38.48 1374.01,-38.48 1374.01,-44.48 1368.01,-50.48 1362.01,-50.48"/>
<text xml:space="preserve" text-anchor="middle" x="1274" y="-37.34" font-family="Arial" font-size="9.00">Residual &#45;&gt; FiLM initialization:</text>
<text xml:space="preserve" text-anchor="middle" x="1274" y="-26.54" font-family="Arial" font-size="9.00">gamma_f = 1, beta_f = 0; other weights copied</text>
<text xml:space="preserve" text-anchor="middle" x="1274" y="-15.74" font-family="Arial" font-size="9.00">(exact function match at step 0)</text>
</g>
<!-- film_note -->
<g id="node29" class="node">
<title>film_note</title>
<path fill="#fef2f2" stroke="#b85c5c" stroke-width="1.3" d="M1555.23,-50.48C1555.23,-50.48 1408.77,-50.48 1408.77,-50.48 1402.77,-50.48 1396.77,-44.48 1396.77,-38.48 1396.77,-38.48 1396.77,-20 1396.77,-20 1396.77,-14 1402.77,-8 1408.77,-8 1408.77,-8 1555.23,-8 1555.23,-8 1561.23,-8 1567.23,-14 1567.23,-20 1567.23,-20 1567.23,-38.48 1567.23,-38.48 1567.23,-44.48 1561.23,-50.48 1555.23,-50.48"/>
<text xml:space="preserve" text-anchor="middle" x="1482" y="-37.34" font-family="Arial" font-size="9.00">New family requires a gamma/beta row</text>
<text xml:space="preserve" text-anchor="middle" x="1482" y="-26.54" font-family="Arial" font-size="9.00">and a Delta head. Identity + zero init</text>
<text xml:space="preserve" text-anchor="middle" x="1482" y="-15.74" font-family="Arial" font-size="9.00">then gives the shared fallback.</text>
</g>
</g>
</svg>
