<?xml version="1.0" encoding="UTF-8" standalone="no"?>
<!DOCTYPE svg PUBLIC "-//W3C//DTD SVG 1.1//EN"
 "http://www.w3.org/Graphics/SVG/1.1/DTD/svg11.dtd">
<!-- Generated by graphviz version 14.1.3 (20260303.0454)
 -->
<!-- Title: MLPFamilyConditioningSimple Pages: 1 -->
<svg width="1259pt" height="564pt"
 viewBox="3.00 3.00 1256.00 562.00" xmlns="http://www.w3.org/2000/svg" xmlns:xlink="http://www.w3.org/1999/xlink">
<g id="graph0" class="graph" transform="scale(1 1) rotate(0) translate(6.88 557.62)">
<title>MLPFamilyConditioningSimple</title>
<polygon fill="white" stroke="none" points="-4,4 -4,-554.74 1249,-554.74 1249,4 -4,4"/>
<g id="clust1" class="cluster">
<title>cluster_direct</title>
<path fill="white" stroke="#1b1b1b" d="M12,-38C12,-38 361,-38 361,-38 367,-38 373,-44 373,-50 373,-50 373,-500.43 373,-500.43 373,-506.43 367,-512.43 361,-512.43 361,-512.43 12,-512.43 12,-512.43 6,-512.43 0,-506.43 0,-500.43 0,-500.43 0,-50 0,-50 0,-44 6,-38 12,-38"/>
</g>
<g id="clust5" class="cluster">
<title>cluster_residual</title>
<path fill="white" stroke="#1b1b1b" d="M393,-4C393,-4 797,-4 797,-4 803,-4 809,-10 809,-16 809,-16 809,-534.1 809,-534.1 809,-540.1 803,-546.1 797,-546.1 797,-546.1 393,-546.1 393,-546.1 387,-546.1 381,-540.1 381,-534.1 381,-534.1 381,-16 381,-16 381,-10 387,-4 393,-4"/>
</g>
<g id="clust9" class="cluster">
<title>cluster_film</title>
<path fill="white" stroke="#1b1b1b" d="M829,0C829,0 1233,0 1233,0 1239,0 1245,-6 1245,-12 1245,-12 1245,-538.74 1245,-538.74 1245,-544.74 1239,-550.74 1233,-550.74 1233,-550.74 829,-550.74 829,-550.74 823,-550.74 817,-544.74 817,-538.74 817,-538.74 817,-12 817,-12 817,-6 823,0 829,0"/>
</g>
<!-- a_title&#45;&gt;a_input -->
<!-- a_title&#45;&gt;a_family -->
<!-- a_input&#45;&gt;a_trunk -->
<g id="edge3" class="edge">
<title>a_input:s&#45;&gt;a_trunk:n</title>
<path fill="none" stroke="#aeb8c2" d="M85,-392.57C85,-392.57 85,-361.52 85,-361.52"/>
<polygon fill="#aeb8c2" stroke="#aeb8c2" points="86.93,-361.52 85,-356.02 83.08,-361.52 86.93,-361.52"/>
</g>
<!-- a_family&#45;&gt;a_mean -->
<g id="edge6" class="edge">
<title>a_family:s&#45;&gt;a_mean:n</title>
<path fill="none" stroke="#aeb8c2" d="M193,-389C193,-389 20.54,-389 20.54,-389 20.54,-389 20.54,-276.2 20.54,-276.2"/>
<polygon fill="#aeb8c2" stroke="#aeb8c2" points="22.47,-276.2 20.54,-270.7 18.62,-276.2 22.47,-276.2"/>
<text xml:space="preserve" text-anchor="middle" x="203.4" y="-329.19" font-family="Arial" font-size="10.00">Selects</text>
</g>
<!-- a_trunk&#45;&gt;a_mean -->
<g id="edge4" class="edge">
<title>a_trunk:s&#45;&gt;a_mean:n</title>
<path fill="none" stroke="#aeb8c2" d="M78.86,-309.87C78.86,-309.87 78.86,-276.2 78.86,-276.2"/>
<polygon fill="#aeb8c2" stroke="#aeb8c2" points="80.79,-276.2 78.86,-270.7 76.94,-276.2 80.79,-276.2"/>
</g>
<!-- a_trunk&#45;&gt;a_var -->
<g id="edge5" class="edge">
<title>a_trunk:s&#45;&gt;a_var:n</title>
<path fill="none" stroke="#aeb8c2" d="M138.81,-309.87C138.81,-309.87 138.81,-287.34 138.81,-287.34"/>
<polygon fill="#aeb8c2" stroke="#aeb8c2" points="140.73,-287.34 138.81,-281.84 136.88,-287.34 140.73,-287.34"/>
</g>
<!-- a_mean&#45;&gt;a_out -->
<g id="edge7" class="edge">
<title>a_mean:s&#45;&gt;a_out:n</title>
<path fill="none" stroke="#aeb8c2" d="M111.16,-210.1C111.16,-210.1 111.16,-176.48 111.16,-176.48"/>
<polygon fill="#aeb8c2" stroke="#aeb8c2" points="113.09,-176.48 111.16,-170.98 109.24,-176.48 113.09,-176.48"/>
</g>
<!-- a_var&#45;&gt;a_out -->
<g id="edge8" class="edge">
<title>a_var:s&#45;&gt;a_out:n</title>
<path fill="none" stroke="#aeb8c2" d="M176.51,-198.96C176.51,-198.96 176.51,-176.48 176.51,-176.48"/>
<polygon fill="#aeb8c2" stroke="#aeb8c2" points="178.43,-176.48 176.51,-170.98 174.58,-176.48 178.43,-176.48"/>
</g>
<!-- a_out&#45;&gt;a_fallback -->
<!-- a_out&#45;&gt;a_warm -->
<!-- b_title&#45;&gt;b_input -->
<!-- b_title&#45;&gt;b_family -->
<!-- b_input&#45;&gt;b_trunk -->
<g id="edge13" class="edge">
<title>b_input:s&#45;&gt;b_trunk:n</title>
<path fill="none" stroke="#aeb8c2" d="M601,-426.25C601,-426.25 601,-395.19 601,-395.19"/>
<polygon fill="#aeb8c2" stroke="#aeb8c2" points="602.93,-395.19 601,-389.69 599.08,-395.19 602.93,-395.19"/>
</g>
<!-- b_family&#45;&gt;b_delta -->
<g id="edge17" class="edge">
<title>b_family:s&#45;&gt;b_delta:n</title>
<path fill="none" stroke="#aeb8c2" d="M699.65,-417.84C699.65,-417.84 699.65,-329 699.65,-329 699.65,-329 620.2,-329 620.2,-329 620.2,-329 620.2,-320.81 620.2,-320.81"/>
<polygon fill="#aeb8c2" stroke="#aeb8c2" points="622.13,-320.81 620.2,-315.31 618.28,-320.81 622.13,-320.81"/>
<text xml:space="preserve" text-anchor="middle" x="719.4" y="-362.86" font-family="Arial" font-size="10.00">Selects</text>
</g>
<!-- b_trunk&#45;&gt;b_mean -->
<g id="edge14" class="edge">
<title>b_trunk:s&#45;&gt;b_mean:n</title>
<path fill="none" stroke="#aeb8c2" d="M601,-366C601,-366 482.26,-366 482.26,-366 482.26,-366 482.26,-309.91 482.26,-309.91"/>
<polygon fill="#aeb8c2" stroke="#aeb8c2" points="484.19,-309.91 482.26,-304.41 480.34,-309.91 484.19,-309.91"/>
</g>
<!-- b_trunk&#45;&gt;b_delta -->
<g id="edge15" class="edge">
<title>b_trunk:s&#45;&gt;b_delta:n</title>
<path fill="none" stroke="#aeb8c2" d="M581.8,-343.54C581.8,-343.54 581.8,-320.81 581.8,-320.81"/>
<polygon fill="#aeb8c2" stroke="#aeb8c2" points="583.73,-320.81 581.8,-315.31 579.88,-320.81 583.73,-320.81"/>
</g>
<!-- b_trunk&#45;&gt;b_var -->
<g id="edge16" class="edge">
<title>b_trunk:s&#45;&gt;b_var:n</title>
<path fill="none" stroke="#aeb8c2" d="M601,-366C601,-366 732.28,-366 732.28,-366 732.28,-366 732.28,-321.01 732.28,-321.01"/>
<polygon fill="#aeb8c2" stroke="#aeb8c2" points="734.21,-321.01 732.28,-315.51 730.36,-321.01 734.21,-321.01"/>
</g>
<!-- b_mean&#45;&gt;b_sum -->
<g id="edge18" class="edge">
<title>b_mean:s&#45;&gt;b_sum:n</title>
<path fill="none" stroke="#aeb8c2" d="M468.66,-243.74C468.66,-243.74 468.66,-184 468.66,-184 468.66,-184 593.99,-184 593.99,-184"/>
<polygon fill="#aeb8c2" stroke="#aeb8c2" points="593.99,-185.93 599.49,-184 593.99,-182.08 593.99,-185.93"/>
</g>
<!-- b_delta&#45;&gt;b_sum -->
<g id="edge19" class="edge">
<title>b_delta:s&#45;&gt;b_sum:n</title>
<path fill="none" stroke="#aeb8c2" d="M601,-232.84C601,-232.84 601,-210.29 601,-210.29"/>
<polygon fill="#aeb8c2" stroke="#aeb8c2" points="602.93,-210.29 601,-204.79 599.08,-210.29 602.93,-210.29"/>
</g>
<!-- b_var&#45;&gt;b_out -->
<g id="edge21" class="edge">
<title>b_var:s&#45;&gt;b_out:n</title>
<path fill="none" stroke="#aeb8c2" d="M694.8,-232.64C694.8,-232.64 694.8,-142.85 694.8,-142.85"/>
<polygon fill="#aeb8c2" stroke="#aeb8c2" points="696.72,-142.85 694.8,-137.35 692.87,-142.85 696.72,-142.85"/>
</g>
<!-- b_sum&#45;&gt;b_out -->
<g id="edge20" class="edge">
<title>b_sum:s&#45;&gt;b_out:n</title>
<path fill="none" stroke="#aeb8c2" d="M601,-165.25C601,-165.25 601,-142.85 601,-142.85"/>
<polygon fill="#aeb8c2" stroke="#aeb8c2" points="602.93,-142.85 601,-137.35 599.08,-142.85 602.93,-142.85"/>
</g>
<!-- b_out&#45;&gt;b_fallback -->
<!-- b_out&#45;&gt;b_warm -->
<!-- c_title&#45;&gt;c_input -->
<!-- c_title&#45;&gt;c_family -->
<!-- c_input&#45;&gt;c_trunk -->
<g id="edge26" class="edge">
<title>c_input:s&#45;&gt;c_trunk:n</title>
<path fill="none" stroke="#aeb8c2" d="M898,-430.89C898,-430.89 898,-399.83 898,-399.83"/>
<polygon fill="#aeb8c2" stroke="#aeb8c2" points="899.93,-399.83 898,-394.33 896.08,-399.83 899.93,-399.83"/>
</g>
<!-- c_family&#45;&gt;c_film -->
<g id="edge28" class="edge">
<title>c_family:s&#45;&gt;c_film:n</title>
<path fill="none" stroke="#aeb8c2" d="M1018.5,-422.48C1018.5,-422.48 1018.5,-399.83 1018.5,-399.83"/>
<polygon fill="#aeb8c2" stroke="#aeb8c2" points="1020.42,-399.83 1018.5,-394.33 1016.57,-399.83 1020.42,-399.83"/>
</g>
<!-- c_family&#45;&gt;c_delta -->
<g id="edge29" class="edge">
<title>c_family:s&#45;&gt;c_delta:n</title>
<path fill="none" stroke="#aeb8c2" d="M960.77,-422.48C960.77,-422.48 960.77,-313 960.77,-313 960.77,-313 1029.99,-313 1029.99,-313"/>
<polygon fill="#aeb8c2" stroke="#aeb8c2" points="1029.99,-314.93 1035.49,-313 1029.99,-311.08 1029.99,-314.93"/>
</g>
<!-- c_trunk&#45;&gt;c_film -->
<g id="edge27" class="edge">
<title>c_trunk:s&#45;&gt;c_film:n</title>
<path fill="none" stroke="#aeb8c2" d="M898,-378C898,-378 1029.99,-378 1029.99,-378"/>
<polygon fill="#aeb8c2" stroke="#aeb8c2" points="1029.99,-379.93 1035.49,-378 1029.99,-376.08 1029.99,-379.93"/>
</g>
<!-- c_film&#45;&gt;c_mean -->
<g id="edge30" class="edge">
<title>c_film:s&#45;&gt;c_mean:n</title>
<path fill="none" stroke="#aeb8c2" d="M1037,-363C1037,-363 965.95,-363 965.95,-363 965.95,-363 965.95,-314.55 965.95,-314.55"/>
<polygon fill="#aeb8c2" stroke="#aeb8c2" points="967.87,-314.55 965.95,-309.05 964.02,-314.55 967.87,-314.55"/>
</g>
<!-- c_film&#45;&gt;c_delta -->
<g id="edge31" class="edge">
<title>c_film:s&#45;&gt;c_delta:n</title>
<path fill="none" stroke="#aeb8c2" d="M1037,-348.18C1037,-348.18 1037,-325.45 1037,-325.45"/>
<polygon fill="#aeb8c2" stroke="#aeb8c2" points="1038.93,-325.45 1037,-319.95 1035.08,-325.45 1038.93,-325.45"/>
</g>
<!-- c_film&#45;&gt;c_var -->
<g id="edge32" class="edge">
<title>c_film:s&#45;&gt;c_var:n</title>
<path fill="none" stroke="#aeb8c2" d="M1037,-370C1037,-370 1145.31,-370 1145.31,-370 1145.31,-370 1145.31,-325.65 1145.31,-325.65"/>
<polygon fill="#aeb8c2" stroke="#aeb8c2" points="1147.23,-325.65 1145.31,-320.15 1143.38,-325.65 1147.23,-325.65"/>
</g>
<!-- c_mean&#45;&gt;c_sum -->
<g id="edge33" class="edge">
<title>c_mean:s&#45;&gt;c_sum:n</title>
<path fill="none" stroke="#aeb8c2" d="M904.66,-248.38C904.66,-248.38 904.66,-189 904.66,-189 904.66,-189 1029.99,-189 1029.99,-189"/>
<polygon fill="#aeb8c2" stroke="#aeb8c2" points="1029.99,-190.93 1035.49,-189 1029.99,-187.08 1029.99,-190.93"/>
</g>
<!-- c_delta&#45;&gt;c_sum -->
<g id="edge34" class="edge">
<title>c_delta:s&#45;&gt;c_sum:n</title>
<path fill="none" stroke="#aeb8c2" d="M1037,-237.48C1037,-237.48 1037,-214.93 1037,-214.93"/>
<polygon fill="#aeb8c2" stroke="#aeb8c2" points="1038.93,-214.93 1037,-209.43 1035.08,-214.93 1038.93,-214.93"/>
</g>
<!-- c_var&#45;&gt;c_out -->
<g id="edge36" class="edge">
<title>c_var:s&#45;&gt;c_out:n</title>
<path fill="none" stroke="#aeb8c2" d="M1128.3,-237.28C1128.3,-237.28 1128.3,-147.49 1128.3,-147.49"/>
<polygon fill="#aeb8c2" stroke="#aeb8c2" points="1130.22,-147.49 1128.3,-141.99 1126.37,-147.49 1130.22,-147.49"/>
</g>
<!-- c_sum&#45;&gt;c_out -->
<g id="edge35" class="edge">
<title>c_sum:s&#45;&gt;c_out:n</title>
<path fill="none" stroke="#aeb8c2" d="M1037,-169.89C1037,-169.89 1037,-147.49 1037,-147.49"/>
<polygon fill="#aeb8c2" stroke="#aeb8c2" points="1038.93,-147.49 1037,-141.99 1035.08,-147.49 1038.93,-147.49"/>
</g>
<!-- c_out&#45;&gt;c_fallback -->
<!-- c_out&#45;&gt;c_warm -->
<!-- a_title -->
<g id="node1" class="node">
<title>a_title</title>
<polygon fill="#003b2f" stroke="#003b2f" points="370.6,-512.43 3.4,-512.43 3.4,-467.79 370.6,-467.79 370.6,-512.43"/>
<text xml:space="preserve" text-anchor="middle" x="187" y="-484.11" font-family="Arial" font-size="20.00" fill="white">Direct Family Heads</text>
</g>
<!-- a_input -->
<g id="node2" class="node">
<title>a_input</title>
<ellipse fill="#26c47a" stroke="#26c47a" cx="85" cy="-411.15" rx="47.52" ry="18.16"/>
<text xml:space="preserve" text-anchor="middle" x="85" y="-407.25" font-family="Arial" font-size="13.00">7 inputs</text>
</g>
<!-- a_family -->
<g id="node3" class="node">
<title>a_family</title>
<polygon fill="#dfa0ed" stroke="#dfa0ed" points="193,-437.79 137.08,-411.15 193,-384.51 248.92,-411.15 193,-437.79"/>
<text xml:space="preserve" text-anchor="middle" x="193" y="-407.25" font-family="Arial" font-size="13.00">Family ID</text>
</g>
<!-- a_trunk -->
<g id="node4" class="node">
<title>a_trunk</title>
<path fill="#a7ebc6" stroke="#a7ebc6" d="M130.6,-354.51C130.6,-354.51 39.4,-354.51 39.4,-354.51 33.4,-354.51 27.4,-348.51 27.4,-342.51 27.4,-342.51 27.4,-321.87 27.4,-321.87 27.4,-315.87 33.4,-309.87 39.4,-309.87 39.4,-309.87 130.6,-309.87 130.6,-309.87 136.6,-309.87 142.6,-315.87 142.6,-321.87 142.6,-321.87 142.6,-342.51 142.6,-342.51 142.6,-348.51 136.6,-354.51 130.6,-354.51"/>
<text xml:space="preserve" text-anchor="middle" x="85" y="-336.09" font-family="Arial" font-size="13.00">Shared Trunk</text>
<text xml:space="preserve" text-anchor="middle" x="85" y="-320.49" font-family="Arial" font-size="13.00">(updated)</text>
</g>
<!-- a_mean -->
<g id="node5" class="node">
<title>a_mean</title>
<ellipse fill="#dfa0ed" stroke="#dfa0ed" cx="72" cy="-239.65" rx="58.32" ry="29.19"/>
<text xml:space="preserve" text-anchor="middle" x="72" y="-243.55" font-family="Arial" font-size="13.00">μ̂ Heads</text>
<text xml:space="preserve" text-anchor="middle" x="72" y="-227.95" font-family="Arial" font-size="13.00">(updated)</text>
</g>
<!-- a_var -->
<g id="node6" class="node">
<title>a_var</title>
<ellipse fill="#9be27f" stroke="#9be27f" cx="206" cy="-239.65" rx="70.98" ry="40.22"/>
<text xml:space="preserve" text-anchor="middle" x="206" y="-251.35" font-family="Arial" font-size="13.00">Shared log(σ²)</text>
<text xml:space="preserve" text-anchor="middle" x="206" y="-235.75" font-family="Arial" font-size="13.00">Head</text>
<text xml:space="preserve" text-anchor="middle" x="206" y="-220.15" font-family="Arial" font-size="13.00">(updated)</text>
</g>
<!-- a_out -->
<g id="node7" class="node">
<title>a_out</title>
<ellipse fill="#26c47a" stroke="#26c47a" cx="155" cy="-143.91" rx="63" ry="25.51"/>
<text xml:space="preserve" text-anchor="start" x="119.95" y="-146.21" font-family="Arial" font-size="13.00">Joint Output</text>
<text xml:space="preserve" text-anchor="start" x="120.17" y="-133.21" font-family="Arial" font-size="13.00">(μ</text>
<text xml:space="preserve" text-anchor="start" x="122.92" y="-133.21" font-family="Arial" baseline-shift="super" font-size="13.00">^</text>
<text xml:space="preserve" text-anchor="start" x="137.82" y="-133.21" font-family="Arial" font-size="13.00">, log(σ</text>
<text xml:space="preserve" text-anchor="start" x="173.94" y="-133.21" font-family="Arial" baseline-shift="super" font-size="13.00">2</text>
<text xml:space="preserve" text-anchor="start" x="181.17" y="-133.21" font-family="Arial" font-size="13.00">))</text>
</g>
<!-- a_fallback -->
<g id="node8" class="node">
<title>a_fallback</title>
<polygon fill="#ff5a5f" stroke="#ff5a5f" points="183.8,-88.4 0.2,-88.4 0.2,-38 183.8,-38 183.8,-88.4"/>
<text xml:space="preserve" text-anchor="middle" x="92" y="-66.5" font-family="Arial" font-size="11.00" fill="#111111">Unseen family slot:</text>
<text xml:space="preserve" text-anchor="middle" x="92" y="-53.3" font-family="Arial" font-size="11.00" fill="#111111">configured fallback ID = 1</text>
</g>
<!-- a_warm -->
<g id="node9" class="node">
<title>a_warm</title>
<polygon fill="#dfa0ed" stroke="#dfa0ed" points="372.8,-85.52 189.2,-85.52 189.2,-40.88 372.8,-40.88 372.8,-85.52"/>
<text xml:space="preserve" text-anchor="middle" x="281" y="-66.5" font-family="Arial" font-size="11.00" fill="#111111">Warm&#45;start from Stage 2</text>
<text xml:space="preserve" text-anchor="middle" x="281" y="-53.3" font-family="Arial" font-size="11.00" fill="#111111">(via P0 bridge)</text>
</g>
<!-- b_title -->
<g id="node10" class="node">
<title>b_title</title>
<polygon fill="#003b2f" stroke="#003b2f" points="796.6,-546.1 429.4,-546.1 429.4,-501.46 796.6,-501.46 796.6,-546.1"/>
<text xml:space="preserve" text-anchor="middle" x="613" y="-517.78" font-family="Arial" font-size="20.00" fill="white">Residual Family Heads</text>
</g>
<!-- b_input -->
<g id="node11" class="node">
<title>b_input</title>
<ellipse fill="#26c47a" stroke="#26c47a" cx="601" cy="-444.82" rx="47.52" ry="18.16"/>
<text xml:space="preserve" text-anchor="middle" x="601" y="-440.92" font-family="Arial" font-size="13.00">7 inputs</text>
</g>
<!-- b_family -->
<g id="node12" class="node">
<title>b_family</title>
<polygon fill="#dfa0ed" stroke="#dfa0ed" points="709,-471.46 653.08,-444.82 709,-418.18 764.92,-444.82 709,-471.46"/>
<text xml:space="preserve" text-anchor="middle" x="709" y="-440.92" font-family="Arial" font-size="13.00">Family ID</text>
</g>
<!-- b_trunk -->
<g id="node13" class="node">
<title>b_trunk</title>
<path fill="#a7ebc6" stroke="#a7ebc6" d="M646.6,-388.18C646.6,-388.18 555.4,-388.18 555.4,-388.18 549.4,-388.18 543.4,-382.18 543.4,-376.18 543.4,-376.18 543.4,-355.54 543.4,-355.54 543.4,-349.54 549.4,-343.54 555.4,-343.54 555.4,-343.54 646.6,-343.54 646.6,-343.54 652.6,-343.54 658.6,-349.54 658.6,-355.54 658.6,-355.54 658.6,-376.18 658.6,-376.18 658.6,-382.18 652.6,-388.18 646.6,-388.18"/>
<text xml:space="preserve" text-anchor="middle" x="601" y="-369.76" font-family="Arial" font-size="13.00">Shared Trunk</text>
<text xml:space="preserve" text-anchor="middle" x="601" y="-354.16" font-family="Arial" font-size="13.00">(frozen)</text>
</g>
<!-- b_mean -->
<g id="node14" class="node">
<title>b_mean</title>
<ellipse fill="#9be27f" stroke="#9be27f" cx="458" cy="-273.32" rx="77.12" ry="29.19"/>
<text xml:space="preserve" text-anchor="middle" x="458" y="-277.22" font-family="Arial" font-size="13.00">Shared μ̂ Head</text>
<text xml:space="preserve" text-anchor="middle" x="458" y="-261.62" font-family="Arial" font-size="13.00">(frozen)</text>
</g>
<!-- b_delta -->
<g id="node15" class="node">
<title>b_delta</title>
<ellipse fill="#dfa0ed" stroke="#dfa0ed" cx="601" cy="-273.32" rx="61.28" ry="40.22"/>
<text xml:space="preserve" text-anchor="middle" x="601" y="-285.02" font-family="Arial" font-size="13.00">Residual Δ_f</text>
<text xml:space="preserve" text-anchor="middle" x="601" y="-269.42" font-family="Arial" font-size="13.00">Heads</text>
<text xml:space="preserve" text-anchor="middle" x="601" y="-253.82" font-family="Arial" font-size="13.00">(updated)</text>
</g>
<!-- b_var -->
<g id="node16" class="node">
<title>b_var</title>
<ellipse fill="#9be27f" stroke="#9be27f" cx="738" cy="-273.32" rx="70.98" ry="40.22"/>
<text xml:space="preserve" text-anchor="middle" x="738" y="-285.02" font-family="Arial" font-size="13.00">Shared log(σ²)</text>
<text xml:space="preserve" text-anchor="middle" x="738" y="-269.42" font-family="Arial" font-size="13.00">Head</text>
<text xml:space="preserve" text-anchor="middle" x="738" y="-253.82" font-family="Arial" font-size="13.00">(updated)</text>
</g>
<!-- b_sum -->
<g id="node17" class="node">
<title>b_sum</title>
<ellipse fill="#9be27f" stroke="#9be27f" cx="601" cy="-184.26" rx="18.84" ry="18.84"/>
<text xml:space="preserve" text-anchor="middle" x="601" y="-177.96" font-family="Arial Bold" font-size="21.00">+</text>
</g>
<!-- b_out -->
<g id="node18" class="node">
<title>b_out</title>
<ellipse fill="#26c47a" stroke="#26c47a" cx="645" cy="-109.91" rx="77.58" ry="25.51"/>
<text xml:space="preserve" text-anchor="start" x="609.95" y="-112.21" font-family="Arial" font-size="13.00">Joint Output</text>
<text xml:space="preserve" text-anchor="start" x="597.34" y="-99.21" font-family="Arial" font-size="13.00">(μ</text>
<text xml:space="preserve" text-anchor="start" x="600.09" y="-99.21" font-family="Arial" baseline-shift="super" font-size="13.00">^</text>
<text xml:space="preserve" text-anchor="start" x="614.99" y="-99.21" font-family="Arial" font-size="13.00"> + Δ</text>
<text xml:space="preserve" text-anchor="start" x="637.03" y="-99.21" font-family="Arial" baseline-shift="sub" font-size="13.00">f</text>
<text xml:space="preserve" text-anchor="start" x="640.65" y="-99.21" font-family="Arial" font-size="13.00">, log(σ</text>
<text xml:space="preserve" text-anchor="start" x="676.77" y="-99.21" font-family="Arial" baseline-shift="super" font-size="13.00">2</text>
<text xml:space="preserve" text-anchor="start" x="684" y="-99.21" font-family="Arial" font-size="13.00">))</text>
</g>
<!-- b_fallback -->
<g id="node19" class="node">
<title>b_fallback</title>
<polygon fill="#ff5a5f" stroke="#ff5a5f" points="585.8,-54.4 402.2,-54.4 402.2,-4 585.8,-4 585.8,-54.4"/>
<text xml:space="preserve" text-anchor="middle" x="494" y="-32.5" font-family="Arial" font-size="11.00" fill="#111111">Unseen family slot:</text>
<text xml:space="preserve" text-anchor="middle" x="494" y="-19.3" font-family="Arial" font-size="11.00" fill="#111111">Δ_f = 0 → shared μ only</text>
</g>
<!-- b_warm -->
<g id="node20" class="node">
<title>b_warm</title>
<polygon fill="#dfa0ed" stroke="#dfa0ed" points="788.8,-51.52 605.2,-51.52 605.2,-6.88 788.8,-6.88 788.8,-51.52"/>
<text xml:space="preserve" text-anchor="middle" x="697" y="-32.5" font-family="Arial" font-size="11.00" fill="#111111">Warm&#45;start from Direct Family</text>
<text xml:space="preserve" text-anchor="middle" x="697" y="-19.3" font-family="Arial" font-size="11.00" fill="#111111">Heads</text>
</g>
<!-- c_title -->
<g id="node21" class="node">
<title>c_title</title>
<polygon fill="#003b2f" stroke="#003b2f" points="1187.6,-550.74 820.4,-550.74 820.4,-506.1 1187.6,-506.1 1187.6,-550.74"/>
<text xml:space="preserve" text-anchor="middle" x="1004" y="-522.42" font-family="Arial" font-size="20.00" fill="white">Residual&#45;FiLM</text>
</g>
<!-- c_input -->
<g id="node22" class="node">
<title>c_input</title>
<ellipse fill="#26c47a" stroke="#26c47a" cx="898" cy="-449.46" rx="47.52" ry="18.16"/>
<text xml:space="preserve" text-anchor="middle" x="898" y="-445.56" font-family="Arial" font-size="13.00">7 inputs</text>
</g>
<!-- c_family -->
<g id="node23" class="node">
<title>c_family</title>
<polygon fill="#dfa0ed" stroke="#dfa0ed" points="1006,-476.1 950.08,-449.46 1006,-422.82 1061.92,-449.46 1006,-476.1"/>
<text xml:space="preserve" text-anchor="middle" x="1006" y="-445.56" font-family="Arial" font-size="13.00">Family ID</text>
</g>
<!-- c_trunk -->
<g id="node24" class="node">
<title>c_trunk</title>
<path fill="#a7ebc6" stroke="#a7ebc6" d="M943.6,-392.82C943.6,-392.82 852.4,-392.82 852.4,-392.82 846.4,-392.82 840.4,-386.82 840.4,-380.82 840.4,-380.82 840.4,-360.18 840.4,-360.18 840.4,-354.18 846.4,-348.18 852.4,-348.18 852.4,-348.18 943.6,-348.18 943.6,-348.18 949.6,-348.18 955.6,-354.18 955.6,-360.18 955.6,-360.18 955.6,-380.82 955.6,-380.82 955.6,-386.82 949.6,-392.82 943.6,-392.82"/>
<text xml:space="preserve" text-anchor="middle" x="898" y="-374.4" font-family="Arial" font-size="13.00">Shared Trunk</text>
<text xml:space="preserve" text-anchor="middle" x="898" y="-358.8" font-family="Arial" font-size="13.00">(frozen)</text>
</g>
<!-- c_film -->
<g id="node25" class="node">
<title>c_film</title>
<path fill="#dfa0ed" stroke="#dfa0ed" d="M1086.92,-392.82C1086.92,-392.82 987.08,-392.82 987.08,-392.82 981.08,-392.82 975.08,-386.82 975.08,-380.82 975.08,-380.82 975.08,-360.18 975.08,-360.18 975.08,-354.18 981.08,-348.18 987.08,-348.18 987.08,-348.18 1086.92,-348.18 1086.92,-348.18 1092.92,-348.18 1098.92,-354.18 1098.92,-360.18 1098.92,-360.18 1098.92,-380.82 1098.92,-380.82 1098.92,-386.82 1092.92,-392.82 1086.92,-392.82"/>
<text xml:space="preserve" text-anchor="middle" x="1037" y="-374.4" font-family="Arial" font-size="13.00">Last block FiLM</text>
<text xml:space="preserve" text-anchor="middle" x="1037" y="-358.8" font-family="Arial" font-size="13.00">(updated)</text>
</g>
<!-- c_mean -->
<g id="node26" class="node">
<title>c_mean</title>
<ellipse fill="#9be27f" stroke="#9be27f" cx="894" cy="-277.96" rx="77.12" ry="29.19"/>
<text xml:space="preserve" text-anchor="middle" x="894" y="-281.86" font-family="Arial" font-size="13.00">Shared μ̂ Head</text>
<text xml:space="preserve" text-anchor="middle" x="894" y="-266.26" font-family="Arial" font-size="13.00">(frozen)</text>
</g>
<!-- c_delta -->
<g id="node27" class="node">
<title>c_delta</title>
<ellipse fill="#dfa0ed" stroke="#dfa0ed" cx="1037" cy="-277.96" rx="61.28" ry="40.22"/>
<text xml:space="preserve" text-anchor="middle" x="1037" y="-289.66" font-family="Arial" font-size="13.00">Residual Δ_f</text>
<text xml:space="preserve" text-anchor="middle" x="1037" y="-274.06" font-family="Arial" font-size="13.00">Heads</text>
<text xml:space="preserve" text-anchor="middle" x="1037" y="-258.46" font-family="Arial" font-size="13.00">(updated)</text>
</g>
<!-- c_var -->
<g id="node28" class="node">
<title>c_var</title>
<ellipse fill="#9be27f" stroke="#9be27f" cx="1174" cy="-277.96" rx="70.98" ry="40.22"/>
<text xml:space="preserve" text-anchor="middle" x="1174" y="-289.66" font-family="Arial" font-size="13.00">Shared log(σ²)</text>
<text xml:space="preserve" text-anchor="middle" x="1174" y="-274.06" font-family="Arial" font-size="13.00">Head</text>
<text xml:space="preserve" text-anchor="middle" x="1174" y="-258.46" font-family="Arial" font-size="13.00">(updated)</text>
</g>
<!-- c_sum -->
<g id="node29" class="node">
<title>c_sum</title>
<ellipse fill="#9be27f" stroke="#9be27f" cx="1037" cy="-188.9" rx="18.84" ry="18.84"/>
<text xml:space="preserve" text-anchor="middle" x="1037" y="-182.6" font-family="Arial Bold" font-size="21.00">+</text>
</g>
<!-- c_out -->
<g id="node30" class="node">
<title>c_out</title>
<ellipse fill="#26c47a" stroke="#26c47a" cx="1076" cy="-114.55" rx="77.58" ry="25.51"/>
<text xml:space="preserve" text-anchor="start" x="1040.95" y="-116.85" font-family="Arial" font-size="13.00">Joint Output</text>
<text xml:space="preserve" text-anchor="start" x="1028.34" y="-103.85" font-family="Arial" font-size="13.00">(μ</text>
<text xml:space="preserve" text-anchor="start" x="1031.09" y="-103.85" font-family="Arial" baseline-shift="super" font-size="13.00">^</text>
<text xml:space="preserve" text-anchor="start" x="1045.99" y="-103.85" font-family="Arial" font-size="13.00"> + Δ</text>
<text xml:space="preserve" text-anchor="start" x="1068.03" y="-103.85" font-family="Arial" baseline-shift="sub" font-size="13.00">f</text>
<text xml:space="preserve" text-anchor="start" x="1071.65" y="-103.85" font-family="Arial" font-size="13.00">, log(σ</text>
<text xml:space="preserve" text-anchor="start" x="1107.77" y="-103.85" font-family="Arial" baseline-shift="super" font-size="13.00">2</text>
<text xml:space="preserve" text-anchor="start" x="1115" y="-103.85" font-family="Arial" font-size="13.00">))</text>
</g>
<!-- c_fallback -->
<g id="node31" class="node">
<title>c_fallback</title>
<polygon fill="#ff5a5f" stroke="#ff5a5f" points="1021.8,-59.04 838.2,-59.04 838.2,0 1021.8,0 1021.8,-59.04"/>
<text xml:space="preserve" text-anchor="middle" x="930" y="-39.42" font-family="Arial" font-size="11.00" fill="#111111">Unseen family slot:</text>
<text xml:space="preserve" text-anchor="middle" x="930" y="-26.22" font-family="Arial" font-size="11.00" fill="#111111">γ = 1, β = 0; Δ_f = 0</text>
<text xml:space="preserve" text-anchor="middle" x="930" y="-13.02" font-family="Arial" font-size="11.00" fill="#111111">→ shared μ only</text>
</g>
<!-- c_warm -->
<g id="node32" class="node">
<title>c_warm</title>
<polygon fill="#dfa0ed" stroke="#dfa0ed" points="1224.8,-51.84 1041.2,-51.84 1041.2,-7.2 1224.8,-7.2 1224.8,-51.84"/>
<text xml:space="preserve" text-anchor="middle" x="1133" y="-32.82" font-family="Arial" font-size="11.00" fill="#111111">Warm&#45;start from Residual Family</text>
<text xml:space="preserve" text-anchor="middle" x="1133" y="-19.62" font-family="Arial" font-size="11.00" fill="#111111">Heads</text>
</g>
</g>
</svg>
