<?xml version="1.0" encoding="UTF-8" standalone="no"?>
<!DOCTYPE svg PUBLIC "-//W3C//DTD SVG 1.1//EN"
 "http://www.w3.org/Graphics/SVG/1.1/DTD/svg11.dtd">
<!-- Generated by graphviz version 2.47.0 (20210316.0558)
 -->
<!-- Title: MLPFamilyConditioning Pages: 1 -->
<svg width="1029pt" height="722pt"
 viewBox="0.00 0.00 1029.24 722.20" xmlns="http://www.w3.org/2000/svg" xmlns:xlink="http://www.w3.org/1999/xlink">
<g id="graph0" class="graph" transform="scale(1 1) rotate(0) translate(14.4 707.8)">
<title>MLPFamilyConditioning</title>
<polygon fill="white" stroke="transparent" points="-14.4,14.4 -14.4,-707.8 1014.84,-707.8 1014.84,14.4 -14.4,14.4"/>
<text text-anchor="middle" x="500.22" y="-669.6" font-family="Arial" font-size="22.00">MLP family&#45;conditioning variants</text>
<g id="clust1" class="cluster">
<title>cluster_family_head</title>
<path fill="white" stroke="#d7dde5" stroke-width="1.2" d="M217.35,0C217.35,0 783.44,0 783.44,0 789.44,0 795.44,-6 795.44,-12 795.44,-12 795.44,-202 795.44,-202 795.44,-208 789.44,-214 783.44,-214 783.44,-214 217.35,-214 217.35,-214 211.35,-214 205.35,-208 205.35,-202 205.35,-202 205.35,-12 205.35,-12 205.35,-6 211.35,0 217.35,0"/>
<text text-anchor="middle" x="500.4" y="-196.5" font-family="Arial" font-size="15.00">A. Family Head MLP</text>
</g>
<g id="clust3" class="cluster">
<title>cluster_residual_fh</title>
<path fill="white" stroke="#d7dde5" stroke-width="1.2" d="M195.72,-222C195.72,-222 805.44,-222 805.44,-222 811.44,-222 817.44,-228 817.44,-234 817.44,-234 817.44,-425 817.44,-425 817.44,-431 811.44,-437 805.44,-437 805.44,-437 195.72,-437 195.72,-437 189.72,-437 183.72,-431 183.72,-425 183.72,-425 183.72,-234 183.72,-234 183.72,-228 189.72,-222 195.72,-222"/>
<text text-anchor="middle" x="500.58" y="-419.5" font-family="Arial" font-size="15.00">B. Residual Family Head</text>
</g>
<g id="clust5" class="cluster">
<title>cluster_residual_film</title>
<path fill="white" stroke="#d7dde5" stroke-width="1.2" d="M12,-445C12,-445 988.44,-445 988.44,-445 994.44,-445 1000.44,-451 1000.44,-457 1000.44,-457 1000.44,-647 1000.44,-647 1000.44,-653 994.44,-659 988.44,-659 988.44,-659 12,-659 12,-659 6,-659 0,-653 0,-647 0,-647 0,-457 0,-457 0,-451 6,-445 12,-445"/>
<text text-anchor="middle" x="500.22" y="-641.5" font-family="Arial" font-size="15.00">C. Residual&#45;FiLM</text>
</g>
<!-- fh_input&#45;&gt;fh_trunk -->
<g id="edge1" class="edge">
<title>fh_input:e&#45;&gt;fh_trunk:w</title>
<path fill="none" stroke="#52616b" stroke-width="1.3" d="M324.37,-162C324.37,-162 422.23,-162 422.23,-162"/>
<polygon fill="#52616b" stroke="#52616b" stroke-width="1.3" points="422.23,-164.63 429.73,-162 422.23,-159.38 422.23,-164.63"/>
</g>
<!-- fh_family&#45;&gt;fh_heads -->
<g id="edge2" class="edge">
<title>fh_family:e&#45;&gt;fh_heads:w</title>
<path fill="none" stroke="#c96f1a" stroke-width="1.3" d="M332.37,-93.7C332.37,-93.7 550.59,-93.7 550.59,-93.7"/>
<polygon fill="#c96f1a" stroke="#c96f1a" stroke-width="1.3" points="550.59,-96.33 558.09,-93.7 550.59,-91.08 550.59,-96.33"/>
</g>
<!-- fh_trunk&#45;&gt;fh_heads -->
<g id="edge3" class="edge">
<title>fh_trunk:e&#45;&gt;fh_heads:w</title>
<path fill="none" stroke="#52616b" stroke-width="1.3" d="M507.73,-156C507.73,-156 564.44,-156 564.44,-156 564.44,-156 564.44,-100.5 564.44,-100.5"/>
<polygon fill="#52616b" stroke="#52616b" stroke-width="1.3" points="567.07,-100.5 564.44,-93 561.82,-100.5 567.07,-100.5"/>
</g>
<!-- fh_trunk&#45;&gt;fh_var -->
<g id="edge4" class="edge">
<title>fh_trunk:e&#45;&gt;fh_var:w</title>
<path fill="none" stroke="#52616b" stroke-width="1.3" d="M507.73,-168C507.73,-168 562.59,-168 562.59,-168"/>
<polygon fill="#52616b" stroke="#52616b" stroke-width="1.3" points="562.59,-170.63 570.09,-168 562.59,-165.38 562.59,-170.63"/>
</g>
<!-- fh_heads&#45;&gt;fh_out -->
<g id="edge5" class="edge">
<title>fh_heads:e&#45;&gt;fh_out:w</title>
<path fill="none" stroke="#52616b" stroke-width="1.3" d="M654.44,-93C654.44,-93 654.44,-122.53 654.44,-122.53 654.44,-122.53 702.27,-122.53 702.27,-122.53"/>
<polygon fill="#52616b" stroke="#52616b" stroke-width="1.3" points="702.27,-125.16 709.77,-122.53 702.27,-119.91 702.27,-125.16"/>
</g>
<!-- fh_var&#45;&gt;fh_out -->
<g id="edge6" class="edge">
<title>fh_var:e&#45;&gt;fh_out:w</title>
<path fill="none" stroke="#52616b" stroke-width="1.3" d="M609.44,-162C609.44,-162 609.44,-133.07 609.44,-133.07 609.44,-133.07 702.27,-133.07 702.27,-133.07"/>
<polygon fill="#52616b" stroke="#52616b" stroke-width="1.3" points="702.27,-135.69 709.77,-133.07 702.27,-130.44 702.27,-135.69"/>
</g>
<!-- rfh_input&#45;&gt;rfh_trunk -->
<g id="edge7" class="edge">
<title>rfh_input:e&#45;&gt;rfh_trunk:w</title>
<path fill="none" stroke="#52616b" stroke-width="1.3" d="M271.9,-375.3C271.9,-375.3 338.92,-375.3 338.92,-375.3"/>
<polygon fill="#52616b" stroke="#52616b" stroke-width="1.3" points="338.92,-377.93 346.42,-375.3 338.92,-372.68 338.92,-377.93"/>
</g>
<!-- rfh_family&#45;&gt;rfh_delta -->
<g id="edge8" class="edge">
<title>rfh_family:e&#45;&gt;rfh_delta:w</title>
<path fill="none" stroke="#c96f1a" stroke-width="1.3" d="M244.44,-316C244.44,-316 244.44,-276.93 244.44,-276.93 244.44,-276.93 467.59,-276.93 467.59,-276.93"/>
<polygon fill="#c96f1a" stroke="#c96f1a" stroke-width="1.3" points="467.59,-279.56 475.09,-276.93 467.59,-274.31 467.59,-279.56"/>
</g>
<!-- rfh_trunk&#45;&gt;rfh_shared -->
<g id="edge9" class="edge">
<title>rfh_trunk:e&#45;&gt;rfh_shared:w</title>
<path fill="none" stroke="#52616b" stroke-width="1.3" d="M424.42,-359.2C424.42,-359.2 470.59,-359.2 470.59,-359.2"/>
<polygon fill="#52616b" stroke="#52616b" stroke-width="1.3" points="470.59,-361.83 478.09,-359.2 470.59,-356.58 470.59,-361.83"/>
</g>
<!-- rfh_trunk&#45;&gt;rfh_delta -->
<g id="edge10" class="edge">
<title>rfh_trunk:e&#45;&gt;rfh_delta:w</title>
<path fill="none" stroke="#52616b" stroke-width="1.3" d="M385.44,-367C385.44,-367 385.44,-287.47 385.44,-287.47 385.44,-287.47 467.59,-287.47 467.59,-287.47"/>
<polygon fill="#52616b" stroke="#52616b" stroke-width="1.3" points="467.59,-290.09 475.09,-287.47 467.59,-284.84 467.59,-290.09"/>
</g>
<!-- rfh_trunk&#45;&gt;rfh_var -->
<g id="edge14" class="edge">
<title>rfh_trunk:e&#45;&gt;rfh_var:w</title>
<path fill="none" stroke="#52616b" stroke-width="1.3" d="M424.42,-377.2C424.42,-377.2 606.27,-377.2 606.27,-377.2"/>
<polygon fill="#52616b" stroke="#52616b" stroke-width="1.3" points="606.27,-379.83 613.77,-377.2 606.27,-374.58 606.27,-379.83"/>
</g>
<!-- rfh_shared&#45;&gt;rfh_sum -->
<g id="edge11" class="edge">
<title>rfh_shared:e&#45;&gt;rfh_sum:w</title>
<path fill="none" stroke="#52616b" stroke-width="1.3" d="M560.09,-342.9C560.09,-342.9 643.44,-342.9 643.44,-342.9 643.44,-342.9 643.44,-324.5 643.44,-324.5"/>
<polygon fill="#52616b" stroke="#52616b" stroke-width="1.3" points="646.07,-324.5 643.44,-317 640.82,-324.5 646.07,-324.5"/>
</g>
<!-- rfh_delta&#45;&gt;rfh_sum -->
<g id="edge12" class="edge">
<title>rfh_delta:e&#45;&gt;rfh_sum:w</title>
<path fill="none" stroke="#52616b" stroke-width="1.3" d="M563.09,-281.3C563.09,-281.3 653.44,-281.3 653.44,-281.3 653.44,-281.3 653.44,-309.5 653.44,-309.5"/>
<polygon fill="#52616b" stroke="#52616b" stroke-width="1.3" points="650.82,-309.5 653.44,-317 656.07,-309.5 650.82,-309.5"/>
</g>
<!-- rfh_sum&#45;&gt;rfh_out -->
<g id="edge13" class="edge">
<title>rfh_sum:e&#45;&gt;rfh_out:w</title>
<path fill="none" stroke="#52616b" stroke-width="1.3" d="M662.44,-317C662.44,-317 662.44,-350.8 662.44,-350.8 662.44,-350.8 734.28,-350.8 734.28,-350.8"/>
<polygon fill="#52616b" stroke="#52616b" stroke-width="1.3" points="734.28,-353.43 741.78,-350.8 734.28,-348.18 734.28,-353.43"/>
</g>
<!-- rfh_var&#45;&gt;rfh_out -->
<g id="edge15" class="edge">
<title>rfh_var:e&#45;&gt;rfh_out:w</title>
<path fill="none" stroke="#52616b" stroke-width="1.3" d="M687.44,-385C687.44,-385 687.44,-358.7 687.44,-358.7 687.44,-358.7 734.28,-358.7 734.28,-358.7"/>
<polygon fill="#52616b" stroke="#52616b" stroke-width="1.3" points="734.28,-361.33 741.78,-358.7 734.28,-356.08 734.28,-361.33"/>
</g>
<!-- rfh_note&#45;&gt;rfh_sum -->
<g id="edge16" class="edge">
<title>rfh_note:e&#45;&gt;rfh_sum:w</title>
<path fill="none" stroke="#b85c5c" stroke-width="1.3" stroke-dasharray="5,2" d="M288.44,-248C288.44,-248 288.44,-316.5 288.44,-316.5 288.44,-316.5 616.27,-316.5 616.27,-316.5"/>
<polygon fill="#b85c5c" stroke="#b85c5c" stroke-width="1.3" points="616.27,-319.13 623.77,-316.5 616.27,-313.88 616.27,-319.13"/>
</g>
<!-- film_input&#45;&gt;film_trunk_a -->
<g id="edge17" class="edge">
<title>film_input:e&#45;&gt;film_trunk_a:w</title>
<path fill="none" stroke="#52616b" stroke-width="1.3" d="M107.01,-603.8C107.01,-603.8 192.87,-603.8 192.87,-603.8"/>
<polygon fill="#52616b" stroke="#52616b" stroke-width="1.3" points="192.87,-606.43 200.37,-603.8 192.87,-601.18 192.87,-606.43"/>
</g>
<!-- film_family&#45;&gt;film_adapter -->
<g id="edge18" class="edge">
<title>film_family:e&#45;&gt;film_adapter:w</title>
<path fill="none" stroke="#7c5cc4" stroke-width="1.3" d="M115.01,-552.87C115.01,-552.87 320.73,-552.87 320.73,-552.87"/>
<polygon fill="#7c5cc4" stroke="#7c5cc4" stroke-width="1.3" points="320.73,-555.49 328.23,-552.87 320.73,-550.24 320.73,-555.49"/>
</g>
<!-- film_family&#45;&gt;film_delta -->
<g id="edge19" class="edge">
<title>film_family:e&#45;&gt;film_delta:w</title>
<path fill="none" stroke="#c96f1a" stroke-width="1.3" d="M115.01,-530.3C115.01,-530.3 702.44,-530.3 702.44,-530.3 702.44,-530.3 702.44,-550.5 702.44,-550.5"/>
<polygon fill="#c96f1a" stroke="#c96f1a" stroke-width="1.3" points="699.82,-550.5 702.44,-558 705.07,-550.5 699.82,-550.5"/>
</g>
<!-- film_trunk_a&#45;&gt;film_adapter -->
<g id="edge20" class="edge">
<title>film_trunk_a:e&#45;&gt;film_adapter:w</title>
<path fill="none" stroke="#52616b" stroke-width="1.3" d="M239.44,-601C239.44,-601 239.44,-569.2 239.44,-569.2 239.44,-569.2 320.73,-569.2 320.73,-569.2"/>
<polygon fill="#52616b" stroke="#52616b" stroke-width="1.3" points="320.73,-571.83 328.23,-569.2 320.73,-566.58 320.73,-571.83"/>
</g>
<!-- film_adapter&#45;&gt;film_trunk_b -->
<g id="edge21" class="edge">
<title>film_adapter:e&#45;&gt;film_trunk_b:w</title>
<path fill="none" stroke="#52616b" stroke-width="1.3" d="M456.23,-561C456.23,-561 497.93,-561 497.93,-561"/>
<polygon fill="#52616b" stroke="#52616b" stroke-width="1.3" points="497.93,-563.63 505.43,-561 497.93,-558.38 497.93,-563.63"/>
</g>
<!-- film_trunk_b&#45;&gt;film_shared -->
<g id="edge22" class="edge">
<title>film_trunk_b:e&#45;&gt;film_shared:w</title>
<path fill="none" stroke="#52616b" stroke-width="1.3" d="M556.44,-559C556.44,-559 556.44,-498.4 556.44,-498.4 556.44,-498.4 649.26,-498.4 649.26,-498.4"/>
<polygon fill="#52616b" stroke="#52616b" stroke-width="1.3" points="649.26,-501.03 656.76,-498.4 649.26,-495.78 649.26,-501.03"/>
</g>
<!-- film_trunk_b&#45;&gt;film_delta -->
<g id="edge23" class="edge">
<title>film_trunk_b:e&#45;&gt;film_delta:w</title>
<path fill="none" stroke="#52616b" stroke-width="1.3" d="M607.43,-558.5C607.43,-558.5 650.26,-558.5 650.26,-558.5"/>
<polygon fill="#52616b" stroke="#52616b" stroke-width="1.3" points="650.26,-561.13 657.76,-558.5 650.26,-555.88 650.26,-561.13"/>
</g>
<!-- film_trunk_b&#45;&gt;film_var -->
<g id="edge27" class="edge">
<title>film_trunk_b:e&#45;&gt;film_var:w</title>
<path fill="none" stroke="#52616b" stroke-width="1.3" d="M556.44,-559C556.44,-559 556.44,-603.8 556.44,-603.8 556.44,-603.8 789.27,-603.8 789.27,-603.8"/>
<polygon fill="#52616b" stroke="#52616b" stroke-width="1.3" points="789.27,-606.43 796.77,-603.8 789.27,-601.18 789.27,-606.43"/>
</g>
<!-- film_shared&#45;&gt;film_sum -->
<g id="edge24" class="edge">
<title>film_shared:e&#45;&gt;film_sum:w</title>
<path fill="none" stroke="#52616b" stroke-width="1.3" d="M746.76,-489C746.76,-489 836.44,-489 836.44,-489 836.44,-489 836.44,-531.5 836.44,-531.5"/>
<polygon fill="#52616b" stroke="#52616b" stroke-width="1.3" points="833.82,-531.5 836.44,-539 839.07,-531.5 833.82,-531.5"/>
</g>
<!-- film_delta&#45;&gt;film_sum -->
<g id="edge25" class="edge">
<title>film_delta:e&#45;&gt;film_sum:w</title>
<path fill="none" stroke="#52616b" stroke-width="1.3" d="M745.76,-548.3C745.76,-548.3 799.27,-548.3 799.27,-548.3"/>
<polygon fill="#52616b" stroke="#52616b" stroke-width="1.3" points="799.27,-550.93 806.77,-548.3 799.27,-545.68 799.27,-550.93"/>
</g>
<!-- film_sum&#45;&gt;film_out -->
<g id="edge26" class="edge">
<title>film_sum:e&#45;&gt;film_out:w</title>
<path fill="none" stroke="#52616b" stroke-width="1.3" d="M836.44,-539C836.44,-539 836.44,-563.47 836.44,-563.47 836.44,-563.47 917.28,-563.47 917.28,-563.47"/>
<polygon fill="#52616b" stroke="#52616b" stroke-width="1.3" points="917.28,-566.09 924.78,-563.47 917.28,-560.84 917.28,-566.09"/>
</g>
<!-- film_var&#45;&gt;film_out -->
<g id="edge28" class="edge">
<title>film_var:e&#45;&gt;film_out:w</title>
<path fill="none" stroke="#52616b" stroke-width="1.3" d="M870.44,-607C870.44,-607 870.44,-569.93 870.44,-569.93 870.44,-569.93 917.28,-569.93 917.28,-569.93"/>
<polygon fill="#52616b" stroke="#52616b" stroke-width="1.3" points="917.28,-572.56 924.78,-569.93 917.28,-567.31 917.28,-572.56"/>
</g>
<!-- film_note&#45;&gt;film_adapter -->
<g id="edge29" class="edge">
<title>film_note:e&#45;&gt;film_adapter:w</title>
<path fill="none" stroke="#b85c5c" stroke-width="1.3" stroke-dasharray="5,2" d="M132.44,-471C132.44,-471 132.44,-548.73 132.44,-548.73 132.44,-548.73 320.73,-548.73 320.73,-548.73"/>
<polygon fill="#b85c5c" stroke="#b85c5c" stroke-width="1.3" points="320.73,-551.36 328.23,-548.73 320.73,-546.11 320.73,-551.36"/>
</g>
<!-- fh_input -->
<g id="node1" class="node">
<title>fh_input</title>
<path fill="#eef2ff" stroke="#4f5f9f" stroke-width="1.3" d="M312.22,-180.3C312.22,-180.3 280.52,-180.3 280.52,-180.3 274.52,-180.3 268.52,-174.3 268.52,-168.3 268.52,-168.3 268.52,-155.7 268.52,-155.7 268.52,-149.7 274.52,-143.7 280.52,-143.7 280.52,-143.7 312.22,-143.7 312.22,-143.7 318.22,-143.7 324.22,-149.7 324.22,-155.7 324.22,-155.7 324.22,-168.3 324.22,-168.3 324.22,-174.3 318.22,-180.3 312.22,-180.3"/>
<text text-anchor="middle" x="296.37" y="-165.6" font-family="Arial" font-size="12.00">features</text>
<text text-anchor="middle" x="296.37" y="-151.2" font-family="Arial" font-size="12.00">+ time</text>
</g>
<!-- fh_family -->
<g id="node2" class="node">
<title>fh_family</title>
<ellipse fill="#fff7ed" stroke="#c96f1a" stroke-width="1.3" cx="296.37" cy="-94" rx="35.53" ry="18"/>
<text text-anchor="middle" x="296.37" y="-90.4" font-family="Arial" font-size="12.00">family id</text>
</g>
<!-- fh_trunk -->
<g id="node3" class="node">
<title>fh_trunk</title>
<path fill="#e8f0fe" stroke="#4e79a7" stroke-width="1.3" d="M495.91,-180C495.91,-180 441.54,-180 441.54,-180 435.54,-180 429.54,-174 429.54,-168 429.54,-168 429.54,-156 429.54,-156 429.54,-150 435.54,-144 441.54,-144 441.54,-144 495.91,-144 495.91,-144 501.91,-144 507.91,-150 507.91,-156 507.91,-156 507.91,-168 507.91,-168 507.91,-174 501.91,-180 495.91,-180"/>
<text text-anchor="middle" x="468.73" y="-158.4" font-family="Arial" font-size="12.00">shared trunk</text>
</g>
<!-- fh_heads -->
<g id="node4" class="node">
<title>fh_heads</title>
<path fill="#fff7ed" stroke="#c96f1a" stroke-width="1.3" d="M648.12,-111.3C648.12,-111.3 570.06,-111.3 570.06,-111.3 564.06,-111.3 558.06,-105.3 558.06,-99.3 558.06,-99.3 558.06,-86.7 558.06,-86.7 558.06,-80.7 564.06,-74.7 570.06,-74.7 570.06,-74.7 648.12,-74.7 648.12,-74.7 654.12,-74.7 660.12,-80.7 660.12,-86.7 660.12,-86.7 660.12,-99.3 660.12,-99.3 660.12,-105.3 654.12,-111.3 648.12,-111.3"/>
<text text-anchor="middle" x="609.09" y="-96.6" font-family="Arial" font-size="12.00">family&#45;specific</text>
<text text-anchor="middle" x="609.09" y="-82.2" font-family="Arial" font-size="12.00">mean head mu_f</text>
</g>
<!-- fh_var -->
<g id="node5" class="node">
<title>fh_var</title>
<path fill="#f1f5f9" stroke="#64748b" stroke-width="1.3" d="M636.27,-180.3C636.27,-180.3 581.9,-180.3 581.9,-180.3 575.9,-180.3 569.9,-174.3 569.9,-168.3 569.9,-168.3 569.9,-155.7 569.9,-155.7 569.9,-149.7 575.9,-143.7 581.9,-143.7 581.9,-143.7 636.27,-143.7 636.27,-143.7 642.27,-143.7 648.27,-149.7 648.27,-155.7 648.27,-155.7 648.27,-168.3 648.27,-168.3 648.27,-174.3 642.27,-180.3 636.27,-180.3"/>
<text text-anchor="middle" x="609.09" y="-165.6" font-family="Arial" font-size="12.00">shared</text>
<text text-anchor="middle" x="609.09" y="-151.2" font-family="Arial" font-size="12.00">log&#45;var head</text>
</g>
<!-- fh_out -->
<g id="node6" class="node">
<title>fh_out</title>
<path fill="#ecfdf3" stroke="#4c9a45" stroke-width="1.3" d="M775.61,-145.3C775.61,-145.3 721.93,-145.3 721.93,-145.3 715.93,-145.3 709.93,-139.3 709.93,-133.3 709.93,-133.3 709.93,-120.7 709.93,-120.7 709.93,-114.7 715.93,-108.7 721.93,-108.7 721.93,-108.7 775.61,-108.7 775.61,-108.7 781.61,-108.7 787.61,-114.7 787.61,-120.7 787.61,-120.7 787.61,-133.3 787.61,-133.3 787.61,-139.3 781.61,-145.3 775.61,-145.3"/>
<text text-anchor="middle" x="748.77" y="-130.6" font-family="Arial" font-size="12.00">prediction</text>
<text text-anchor="middle" x="748.77" y="-116.2" font-family="Arial" font-size="12.00">mu_f, sigma</text>
</g>
<!-- fh_note -->
<g id="node7" class="node">
<title>fh_note</title>
<path fill="#fef2f2" stroke="#b85c5c" stroke-width="1.3" d="M367.41,-44.3C367.41,-44.3 225.33,-44.3 225.33,-44.3 219.33,-44.3 213.33,-38.3 213.33,-32.3 213.33,-32.3 213.33,-19.7 213.33,-19.7 213.33,-13.7 219.33,-7.7 225.33,-7.7 225.33,-7.7 367.41,-7.7 367.41,-7.7 373.41,-7.7 379.41,-13.7 379.41,-19.7 379.41,-19.7 379.41,-32.3 379.41,-32.3 379.41,-38.3 373.41,-44.3 367.41,-44.3"/>
<text text-anchor="middle" x="296.37" y="-29.6" font-family="Arial" font-size="12.00">unseen family needs fallback</text>
<text text-anchor="middle" x="296.37" y="-15.2" font-family="Arial" font-size="12.00">or a newly trained head</text>
</g>
<!-- rfh_input -->
<g id="node8" class="node">
<title>rfh_input</title>
<path fill="#eef2ff" stroke="#4f5f9f" stroke-width="1.3" d="M259.75,-402.3C259.75,-402.3 228.05,-402.3 228.05,-402.3 222.05,-402.3 216.05,-396.3 216.05,-390.3 216.05,-390.3 216.05,-377.7 216.05,-377.7 216.05,-371.7 222.05,-365.7 228.05,-365.7 228.05,-365.7 259.75,-365.7 259.75,-365.7 265.75,-365.7 271.75,-371.7 271.75,-377.7 271.75,-377.7 271.75,-390.3 271.75,-390.3 271.75,-396.3 265.75,-402.3 259.75,-402.3"/>
<text text-anchor="middle" x="243.9" y="-387.6" font-family="Arial" font-size="12.00">features</text>
<text text-anchor="middle" x="243.9" y="-373.2" font-family="Arial" font-size="12.00">+ time</text>
</g>
<!-- rfh_family -->
<g id="node9" class="node">
<title>rfh_family</title>
<ellipse fill="#fff7ed" stroke="#c96f1a" stroke-width="1.3" cx="243.9" cy="-316" rx="35.53" ry="18"/>
<text text-anchor="middle" x="243.9" y="-312.4" font-family="Arial" font-size="12.00">family id</text>
</g>
<!-- rfh_trunk -->
<g id="node10" class="node">
<title>rfh_trunk</title>
<path fill="#e8f0fe" stroke="#4e79a7" stroke-width="1.3" d="M412.6,-385C412.6,-385 358.23,-385 358.23,-385 352.23,-385 346.23,-379 346.23,-373 346.23,-373 346.23,-361 346.23,-361 346.23,-355 352.23,-349 358.23,-349 358.23,-349 412.6,-349 412.6,-349 418.6,-349 424.6,-355 424.6,-361 424.6,-361 424.6,-373 424.6,-373 424.6,-379 418.6,-385 412.6,-385"/>
<text text-anchor="middle" x="385.42" y="-363.4" font-family="Arial" font-size="12.00">shared trunk</text>
</g>
<!-- rfh_shared -->
<g id="node11" class="node">
<title>rfh_shared</title>
<path fill="#eaf7ef" stroke="#4c9a45" stroke-width="1.3" d="M548.11,-369.3C548.11,-369.3 490.07,-369.3 490.07,-369.3 484.07,-369.3 478.07,-363.3 478.07,-357.3 478.07,-357.3 478.07,-344.7 478.07,-344.7 478.07,-338.7 484.07,-332.7 490.07,-332.7 490.07,-332.7 548.11,-332.7 548.11,-332.7 554.11,-332.7 560.11,-338.7 560.11,-344.7 560.11,-344.7 560.11,-357.3 560.11,-357.3 560.11,-363.3 554.11,-369.3 548.11,-369.3"/>
<text text-anchor="middle" x="519.09" y="-354.6" font-family="Arial" font-size="12.00">shared mean</text>
<text text-anchor="middle" x="519.09" y="-340.2" font-family="Arial" font-size="12.00">mu_shared</text>
</g>
<!-- rfh_delta -->
<g id="node12" class="node">
<title>rfh_delta</title>
<path fill="#fff7ed" stroke="#c96f1a" stroke-width="1.3" d="M551.26,-300.3C551.26,-300.3 486.93,-300.3 486.93,-300.3 480.93,-300.3 474.93,-294.3 474.93,-288.3 474.93,-288.3 474.93,-275.7 474.93,-275.7 474.93,-269.7 480.93,-263.7 486.93,-263.7 486.93,-263.7 551.26,-263.7 551.26,-263.7 557.26,-263.7 563.26,-269.7 563.26,-275.7 563.26,-275.7 563.26,-288.3 563.26,-288.3 563.26,-294.3 557.26,-300.3 551.26,-300.3"/>
<text text-anchor="middle" x="519.09" y="-285.6" font-family="Arial" font-size="12.00">family residual</text>
<text text-anchor="middle" x="519.09" y="-271.2" font-family="Arial" font-size="12.00">Delta_f</text>
</g>
<!-- rfh_sum -->
<g id="node13" class="node">
<title>rfh_sum</title>
<path fill="#ffffff" stroke="#52616b" stroke-width="1.3" d="M643.16,-329C643.16,-329 633.55,-323 633.55,-323 628.74,-320 628.74,-314 633.55,-311 633.55,-311 643.16,-305 643.16,-305 647.96,-302 657.57,-302 662.38,-305 662.38,-305 671.99,-311 671.99,-311 676.79,-314 676.79,-320 671.99,-323 671.99,-323 662.38,-329 662.38,-329 657.57,-332 647.96,-332 643.16,-329"/>
<text text-anchor="middle" x="652.77" y="-313.4" font-family="Arial" font-size="12.00">add</text>
</g>
<!-- rfh_var -->
<g id="node14" class="node">
<title>rfh_var</title>
<path fill="#f1f5f9" stroke="#64748b" stroke-width="1.3" d="M679.95,-403.3C679.95,-403.3 625.58,-403.3 625.58,-403.3 619.58,-403.3 613.58,-397.3 613.58,-391.3 613.58,-391.3 613.58,-378.7 613.58,-378.7 613.58,-372.7 619.58,-366.7 625.58,-366.7 625.58,-366.7 679.95,-366.7 679.95,-366.7 685.95,-366.7 691.95,-372.7 691.95,-378.7 691.95,-378.7 691.95,-391.3 691.95,-391.3 691.95,-397.3 685.95,-403.3 679.95,-403.3"/>
<text text-anchor="middle" x="652.77" y="-388.6" font-family="Arial" font-size="12.00">shared</text>
<text text-anchor="middle" x="652.77" y="-374.2" font-family="Arial" font-size="12.00">log&#45;var head</text>
</g>
<!-- rfh_out -->
<g id="node15" class="node">
<title>rfh_out</title>
<path fill="#ecfdf3" stroke="#4c9a45" stroke-width="1.3" d="M797.61,-369.3C797.61,-369.3 753.94,-369.3 753.94,-369.3 747.94,-369.3 741.94,-363.3 741.94,-357.3 741.94,-357.3 741.94,-344.7 741.94,-344.7 741.94,-338.7 747.94,-332.7 753.94,-332.7 753.94,-332.7 797.61,-332.7 797.61,-332.7 803.61,-332.7 809.61,-338.7 809.61,-344.7 809.61,-344.7 809.61,-357.3 809.61,-357.3 809.61,-363.3 803.61,-369.3 797.61,-369.3"/>
<text text-anchor="middle" x="775.78" y="-354.6" font-family="Arial" font-size="12.00">prediction</text>
<text text-anchor="middle" x="775.78" y="-340.2" font-family="Arial" font-size="12.00">mu, sigma</text>
</g>
<!-- rfh_note -->
<g id="node16" class="node">
<title>rfh_note</title>
<path fill="#fef2f2" stroke="#b85c5c" stroke-width="1.3" d="M284.26,-266.3C284.26,-266.3 203.54,-266.3 203.54,-266.3 197.54,-266.3 191.54,-260.3 191.54,-254.3 191.54,-254.3 191.54,-241.7 191.54,-241.7 191.54,-235.7 197.54,-229.7 203.54,-229.7 203.54,-229.7 284.26,-229.7 284.26,-229.7 290.26,-229.7 296.26,-235.7 296.26,-241.7 296.26,-241.7 296.26,-254.3 296.26,-254.3 296.26,-260.3 290.26,-266.3 284.26,-266.3"/>
<text text-anchor="middle" x="243.9" y="-251.6" font-family="Arial" font-size="12.00">unseen family:</text>
<text text-anchor="middle" x="243.9" y="-237.2" font-family="Arial" font-size="12.00">Delta = 0 fallback</text>
</g>
<!-- film_input -->
<g id="node17" class="node">
<title>film_input</title>
<path fill="#eef2ff" stroke="#4f5f9f" stroke-width="1.3" d="M94.86,-625.3C94.86,-625.3 63.16,-625.3 63.16,-625.3 57.16,-625.3 51.16,-619.3 51.16,-613.3 51.16,-613.3 51.16,-600.7 51.16,-600.7 51.16,-594.7 57.16,-588.7 63.16,-588.7 63.16,-588.7 94.86,-588.7 94.86,-588.7 100.86,-588.7 106.86,-594.7 106.86,-600.7 106.86,-600.7 106.86,-613.3 106.86,-613.3 106.86,-619.3 100.86,-625.3 94.86,-625.3"/>
<text text-anchor="middle" x="79.01" y="-610.6" font-family="Arial" font-size="12.00">features</text>
<text text-anchor="middle" x="79.01" y="-596.2" font-family="Arial" font-size="12.00">+ time</text>
</g>
<!-- film_family -->
<g id="node18" class="node">
<title>film_family</title>
<ellipse fill="#fff7ed" stroke="#c96f1a" stroke-width="1.3" cx="79.01" cy="-539" rx="35.53" ry="18"/>
<text text-anchor="middle" x="79.01" y="-535.4" font-family="Arial" font-size="12.00">family id</text>
</g>
<!-- film_trunk_a -->
<g id="node19" class="node">
<title>film_trunk_a</title>
<path fill="#e8f0fe" stroke="#4e79a7" stroke-width="1.3" d="M266.55,-619C266.55,-619 212.18,-619 212.18,-619 206.18,-619 200.18,-613 200.18,-607 200.18,-607 200.18,-595 200.18,-595 200.18,-589 206.18,-583 212.18,-583 212.18,-583 266.55,-583 266.55,-583 272.55,-583 278.55,-589 278.55,-595 278.55,-595 278.55,-607 278.55,-607 278.55,-613 272.55,-619 266.55,-619"/>
<text text-anchor="middle" x="239.37" y="-597.4" font-family="Arial" font-size="12.00">shared trunk</text>
</g>
<!-- film_adapter -->
<g id="node20" class="node">
<title>film_adapter</title>
<path fill="#f5edff" stroke="#7c5cc4" stroke-width="1.3" d="M443.78,-581.3C443.78,-581.3 340.69,-581.3 340.69,-581.3 334.69,-581.3 328.69,-575.3 328.69,-569.3 328.69,-569.3 328.69,-556.7 328.69,-556.7 328.69,-550.7 334.69,-544.7 340.69,-544.7 340.69,-544.7 443.78,-544.7 443.78,-544.7 449.78,-544.7 455.78,-550.7 455.78,-556.7 455.78,-556.7 455.78,-569.3 455.78,-569.3 455.78,-575.3 449.78,-581.3 443.78,-581.3"/>
<text text-anchor="middle" x="392.23" y="-566.6" font-family="Arial" font-size="12.00">FiLM adapter</text>
<text text-anchor="middle" x="392.23" y="-552.2" font-family="Arial" font-size="12.00">gamma_f * h + beta_f</text>
</g>
<!-- film_trunk_b -->
<g id="node21" class="node">
<title>film_trunk_b</title>
<path fill="#e8f0fe" stroke="#4e79a7" stroke-width="1.3" d="M595.27,-577.3C595.27,-577.3 517.58,-577.3 517.58,-577.3 511.58,-577.3 505.58,-571.3 505.58,-565.3 505.58,-565.3 505.58,-552.7 505.58,-552.7 505.58,-546.7 511.58,-540.7 517.58,-540.7 517.58,-540.7 595.27,-540.7 595.27,-540.7 601.27,-540.7 607.27,-546.7 607.27,-552.7 607.27,-552.7 607.27,-565.3 607.27,-565.3 607.27,-571.3 601.27,-577.3 595.27,-577.3"/>
<text text-anchor="middle" x="556.43" y="-562.6" font-family="Arial" font-size="12.00">modulated</text>
<text text-anchor="middle" x="556.43" y="-548.2" font-family="Arial" font-size="12.00">representation h&#39;</text>
</g>
<!-- film_shared -->
<g id="node22" class="node">
<title>film_shared</title>
<path fill="#eaf7ef" stroke="#4c9a45" stroke-width="1.3" d="M734.59,-507.3C734.59,-507.3 668.94,-507.3 668.94,-507.3 662.94,-507.3 656.94,-501.3 656.94,-495.3 656.94,-495.3 656.94,-482.7 656.94,-482.7 656.94,-476.7 662.94,-470.7 668.94,-470.7 668.94,-470.7 734.59,-470.7 734.59,-470.7 740.59,-470.7 746.59,-476.7 746.59,-482.7 746.59,-482.7 746.59,-495.3 746.59,-495.3 746.59,-501.3 740.59,-507.3 734.59,-507.3"/>
<text text-anchor="middle" x="701.76" y="-492.6" font-family="Arial" font-size="12.00">shared mean</text>
<text text-anchor="middle" x="701.76" y="-478.2" font-family="Arial" font-size="12.00">mu_shared(h&#39;)</text>
</g>
<!-- film_delta -->
<g id="node23" class="node">
<title>film_delta</title>
<path fill="#fff7ed" stroke="#c96f1a" stroke-width="1.3" d="M733.93,-576.3C733.93,-576.3 669.6,-576.3 669.6,-576.3 663.6,-576.3 657.6,-570.3 657.6,-564.3 657.6,-564.3 657.6,-551.7 657.6,-551.7 657.6,-545.7 663.6,-539.7 669.6,-539.7 669.6,-539.7 733.93,-539.7 733.93,-539.7 739.93,-539.7 745.93,-545.7 745.93,-551.7 745.93,-551.7 745.93,-564.3 745.93,-564.3 745.93,-570.3 739.93,-576.3 733.93,-576.3"/>
<text text-anchor="middle" x="701.76" y="-561.6" font-family="Arial" font-size="12.00">family residual</text>
<text text-anchor="middle" x="701.76" y="-547.2" font-family="Arial" font-size="12.00">Delta_f(h&#39;)</text>
</g>
<!-- film_sum -->
<g id="node24" class="node">
<title>film_sum</title>
<path fill="#ffffff" stroke="#52616b" stroke-width="1.3" d="M826.16,-551C826.16,-551 816.55,-545 816.55,-545 811.74,-542 811.74,-536 816.55,-533 816.55,-533 826.16,-527 826.16,-527 830.96,-524 840.57,-524 845.38,-527 845.38,-527 854.99,-533 854.99,-533 859.79,-536 859.79,-542 854.99,-545 854.99,-545 845.38,-551 845.38,-551 840.57,-554 830.96,-554 826.16,-551"/>
<text text-anchor="middle" x="835.77" y="-535.4" font-family="Arial" font-size="12.00">add</text>
</g>
<!-- film_var -->
<g id="node25" class="node">
<title>film_var</title>
<path fill="#f1f5f9" stroke="#64748b" stroke-width="1.3" d="M862.95,-625.3C862.95,-625.3 808.58,-625.3 808.58,-625.3 802.58,-625.3 796.58,-619.3 796.58,-613.3 796.58,-613.3 796.58,-600.7 796.58,-600.7 796.58,-594.7 802.58,-588.7 808.58,-588.7 808.58,-588.7 862.95,-588.7 862.95,-588.7 868.95,-588.7 874.95,-594.7 874.95,-600.7 874.95,-600.7 874.95,-613.3 874.95,-613.3 874.95,-619.3 868.95,-625.3 862.95,-625.3"/>
<text text-anchor="middle" x="835.77" y="-610.6" font-family="Arial" font-size="12.00">shared</text>
<text text-anchor="middle" x="835.77" y="-596.2" font-family="Arial" font-size="12.00">log&#45;var head</text>
</g>
<!-- film_out -->
<g id="node26" class="node">
<title>film_out</title>
<path fill="#ecfdf3" stroke="#4c9a45" stroke-width="1.3" d="M980.61,-591.3C980.61,-591.3 936.94,-591.3 936.94,-591.3 930.94,-591.3 924.94,-585.3 924.94,-579.3 924.94,-579.3 924.94,-566.7 924.94,-566.7 924.94,-560.7 930.94,-554.7 936.94,-554.7 936.94,-554.7 980.61,-554.7 980.61,-554.7 986.61,-554.7 992.61,-560.7 992.61,-566.7 992.61,-566.7 992.61,-579.3 992.61,-579.3 992.61,-585.3 986.61,-591.3 980.61,-591.3"/>
<text text-anchor="middle" x="958.78" y="-576.6" font-family="Arial" font-size="12.00">prediction</text>
<text text-anchor="middle" x="958.78" y="-562.2" font-family="Arial" font-size="12.00">mu, sigma</text>
</g>
<!-- film_note -->
<g id="node27" class="node">
<title>film_note</title>
<path fill="#fef2f2" stroke="#b85c5c" stroke-width="1.3" d="M138.04,-489.3C138.04,-489.3 19.99,-489.3 19.99,-489.3 13.99,-489.3 7.99,-483.3 7.99,-477.3 7.99,-477.3 7.99,-464.7 7.99,-464.7 7.99,-458.7 13.99,-452.7 19.99,-452.7 19.99,-452.7 138.04,-452.7 138.04,-452.7 144.04,-452.7 150.04,-458.7 150.04,-464.7 150.04,-464.7 150.04,-477.3 150.04,-477.3 150.04,-483.3 144.04,-489.3 138.04,-489.3"/>
<text text-anchor="middle" x="79.01" y="-474.6" font-family="Arial" font-size="12.00">unseen family:</text>
<text text-anchor="middle" x="79.01" y="-460.2" font-family="Arial" font-size="12.00">identity FiLM + Delta = 0</text>
</g>
</g>
</svg>
